<svg xmlns="http://www.w3.org/2000/svg" xmlns:xlink="http://www.w3.org/1999/xlink" viewBox="0 0 300 403.32" width="300" height="403"><defs><style>.cls-1{fill:none;}.cls-2{clip-path:url(#clip-path);}.cls-3,.cls-4{fill:#202124;}.cls-4,.cls-6,.cls-7,.cls-8,.cls-9{fill-rule:evenodd;}.cls-5,.cls-6{fill:#d2e3fc;}.cls-7{fill:#4285f4;}.cls-8{fill:#fff;}.cls-9{fill:#80868b;}</style><clipPath id="clip-path"><rect class="cls-1" width="300" height="403.32"/></clipPath></defs><g id="new"><g class="cls-2"><path class="cls-3" d="M22,133.52a16.9,16.9,0,0,0-2.08-4.19,17.15,17.15,0,0,0-7.38-6.19A17.64,17.64,0,0,0,8.15,122a21.63,21.63,0,0,0-9.62,1.3,13.64,13.64,0,0,0-2.36,1.17c-.16.1-.23.34-.32.53a7.1,7.1,0,0,0,.79-.22,31.21,31.21,0,0,1,4-1.18,23.76,23.76,0,0,1,7.65-.64,14.8,14.8,0,0,1,3.21.74,16,16,0,0,1,5.59,3.76,15.67,15.67,0,0,1,4.27,7.16c.15.59.18,1.54.74,1.85a2.56,2.56,0,0,0,.36-1.25A5.77,5.77,0,0,0,22,133.52Z"/><path class="cls-4" d="M22.09,139.87c-.07.3-.1.6-.14.9a20.05,20.05,0,0,1-4.43,9.3,16.24,16.24,0,0,1-3.61,3.26c-5.11,3.41-12.29,3.17-17.54.19a14.1,14.1,0,0,1-6.29-7.27,27.77,27.77,0,0,1-1.19-3.31c-.22-.77-.24-1.58-.43-2.36,0-.08-.52-1.58-.64-1.36a3,3,0,0,0-.18,1.4c.15,2.5.32,5,.49,7.51,0,.12,0,.24,0,.36.19,1.82.41,3.65.56,5.47.31,3.77.58,7.54.86,11.31.12,1.69.24,3.38.34,5.07,0,.5,0,3,.38,3.16,1.72.52,4.07.08,5.85.09s3.68,0,5.52,0h5.7c1.84,0,3.68,0,5.52,0,1.45,0,2.91,0,4.37,0s1.79-.38,2.1-1.73c.43-1.92.29-3.89.65-5.82.26-1.38.33-2.79.48-4.19.13-1.21.17-2.44.41-3.63.57-2.81.66-5.77,1.08-8.62.44-3.1.89-6.21,1-9.34a6.6,6.6,0,0,0-.12-1.24A1.3,1.3,0,0,0,22.09,139.87Z"/><path class="cls-5" d="M62.71,29.28a7.92,7.92,0,0,0-6.9.43,11.56,11.56,0,0,0-5.39,5.81c-.26.62-.49,1.24-.73,1.85a26.59,26.59,0,0,0-2.91-.25,10.39,10.39,0,0,0-8.7,5.25,17.57,17.57,0,0,0-3,8.77,2,2,0,0,1-.15.47l-1.11-.26a6.89,6.89,0,0,0-7.3,2.71A17,17,0,0,0,23.63,60a49.1,49.1,0,0,0-1,7.43c-.11,1,0,2-.09,2.94a4.8,4.8,0,0,1-.32,1.6A18.45,18.45,0,0,1,20.67,75,41.67,41.67,0,0,0,18,79.42c-.5,1-.94,2-1.53,2.92a48.13,48.13,0,0,0-2.75,5.58c-1,2.16-1.88,4.38-2.79,6.58A26.34,26.34,0,0,0,9.6,98.3c-.23.94-.68,1.83-.9,2.77a16.3,16.3,0,0,0-.88,3.36c0,.18-.26.36-.52.71,0-1.92-.09-3.64-.14-5.35a10.86,10.86,0,0,0-.07-1.28,58.52,58.52,0,0,1-.66-6.19c0-.36,0-.73,0-1.1-.2-2-.43-4-.59-6s0-4.28-.39-6.4a1.35,1.35,0,0,1,.07-.4,17.17,17.17,0,0,0,3.39-5.58,41.62,41.62,0,0,0,1.71-5.42A15.19,15.19,0,0,0,11,62,6,6,0,0,0,10,59.24,9.24,9.24,0,0,0,6.1,55.48c-.28-.13-.54-.27-.56-.48.59-1.06,1.21-2,1.65-3a10.07,10.07,0,0,0,.25-7A14.34,14.34,0,0,0,5,40.34,10.35,10.35,0,0,0-.35,36.59c-.39-.12-.78-.29-1.26-.47a4.06,4.06,0,0,1,.43-.68,3.53,3.53,0,0,0,.8-1.62A13.57,13.57,0,0,0-.9,24.15c-1.87-4.09-5.59-6.2-9.9-6.81A10.81,10.81,0,0,0-20,20.17a11.8,11.8,0,0,0-2.83,9.33,9.34,9.34,0,0,0,.57,2.3,13.59,13.59,0,0,0,7.88,7.51c.21.08.51.06.54.5a8,8,0,0,0-.59,1,18.48,18.48,0,0,0-1.22,3A13.27,13.27,0,0,0-13,55.46a5.61,5.61,0,0,0,.79.75,11.62,11.62,0,0,0,4.44,2.52c.28.08.62.09.72.57-.15.31-.33.69-.53,1.06a12.86,12.86,0,0,0-1.16,3.27,7.34,7.34,0,0,0,.47,4.47A7.82,7.82,0,0,0-4.85,72c.95.56,2,1,2.94,1.5,1.25.66,2.52,1.27,3.72,2A6.5,6.5,0,0,1,4.68,79c.12,2.21.25,4.59.38,7a2.59,2.59,0,0,0,.05.74,11,11,0,0,1,.26,2.91c.13,1.89.24,3.78.36,5.67a5.11,5.11,0,0,0,0,.55,43.11,43.11,0,0,1,.57,6.9c.31,5.63.09,11.27.12,16.9,0,.25.1.56-.32.78-1.47-4.9-3.09-9.69-5.88-14-.05-1.14-.08-2.3-.15-3.46a15.42,15.42,0,0,0-3.31-9.31c-2.41-1.89-4.87-2.71-7.64-1.88,0,0-1.17-2.83-1.27-3a6.52,6.52,0,0,0-5.89-4,9.42,9.42,0,0,0-6.89,2.53,10.3,10.3,0,0,0-2.3,4.13A9.86,9.86,0,0,0-27,98.58a7.57,7.57,0,0,0,5.87,4.76,7.9,7.9,0,0,0,4.31-.26,1,1,0,0,1,1.13.1c0,.33,0,.75,0,1.17A6,6,0,0,0-14,108.16a7,7,0,0,0,3.28,1.9,4.57,4.57,0,0,0,2.71.09A14.11,14.11,0,0,0-3.2,108a6.81,6.81,0,0,1,2.43-1.27,2.92,2.92,0,0,1,.4.38,6.28,6.28,0,0,1,.48.78A65.22,65.22,0,0,1,4.42,118c.19.6.37,1.21.51,1.83a26.41,26.41,0,0,1,1.15,7.83h0a46.08,46.08,0,0,1-.54,6.09c-.12,1.52-.38,3-.56,4.54a4.71,4.71,0,0,0,0,.92c0,.27.17.44.47.39.08-.09.22-.17.24-.28.25-1.5.54-3,.72-4.52.22-1.88.28-3.78.55-5.65.06-.46.11-.91.15-1.37h0c0-.31.07-.61.11-.92l0-.25,0-.27a48.55,48.55,0,0,1,1.61-6.82h0a35.26,35.26,0,0,1,2.35-5.77c1.88-3.66,5-7.4,9.4-7.77,2.32.66,3.29,1.77,4.33,3.93.85,1.78,1.67,3.93,3.68,4.67a11.33,11.33,0,0,0,4.46.84,3.37,3.37,0,0,1,.84.19,11.49,11.49,0,0,0-.4,4.26,7.59,7.59,0,0,0,4.1,5.77,7.15,7.15,0,0,0,.84.4c.17-.28,6.83-11.51,10.62-16.53a6.56,6.56,0,0,0-1.7-1A6.81,6.81,0,0,0,44.9,108a5.21,5.21,0,0,1-1.87-.09c-.06-.69-.09-1.36-.17-2a7.66,7.66,0,0,0-.34-1.79,9.9,9.9,0,0,0-5.83-6,22.17,22.17,0,0,0-5.93-1,8,8,0,0,0-1.83.06,21.65,21.65,0,0,0-8.4,3.48,14.7,14.7,0,0,0-2.16,1.68,30.15,30.15,0,0,0-5.28,6.63C11.55,111.49,9.85,114,9,117c-.46,1.51-1,3-1.63,4.69-.24-2,.18-3.82,0-5.63-.08-1,.2-2.08.14-3.11a26.89,26.89,0,0,1,1.31-9.22A79.47,79.47,0,0,1,12,94.32c.39-.89.81-1.77,1.17-2.68A107.12,107.12,0,0,1,18.3,80.88c1-1.89,2.2-3.66,3.27-5.52s2.11-3.65,4.05-4.69a11.88,11.88,0,0,1,5.51-1.16c3.11-.05,5.79.2,8.54-1.61a7.1,7.1,0,0,0,3.36-4,9,9,0,0,0,.4-4.51c-.07-.28-.22-.59.12-.92a11.15,11.15,0,0,1,1.19,0,12.6,12.6,0,0,0,4.67-.78A9.85,9.85,0,0,0,53,55.46,12,12,0,0,0,56.19,50l.53-1.89c.64,0,1.19,0,1.74,0a8.31,8.31,0,0,0,3.2-.64c3.62-1.25,6.72-5.8,6.68-9.9A9,9,0,0,0,62.71,29.28Z"/><path class="cls-4" d="M2.25,62.66c-.06-.26-.13-.52-.2-.78s-.22-.78-.3-1.18A71.52,71.52,0,0,0-3,45.52c-.66-1.46-1.26-3-1.84-4.44s-1.11-2.82-1.73-4.2c-.81-1.82-1.74-3.62-2.63-5.37-.35-.67-.69-1.35-1-2A11.29,11.29,0,0,0-11,28.05l-.17-.27a1.8,1.8,0,0,0-.89-.85l-.1-.06v0l0,0,0,.19a.65.65,0,0,0,0,.39,6.75,6.75,0,0,0,.7,1.26,22.85,22.85,0,0,1,2.42,4.34c.25.54.5,1.08.76,1.61,1,1.94,1.79,4,2.59,6l.64,1.6q.59,1.46,1.14,2.91c.53,1.4,1.08,2.84,1.69,4.24A48,48,0,0,1,.39,57.91c.19.79.37,1.58.55,2.37.31,1.41.64,2.82,1,4.23l.19.71a19.91,19.91,0,0,1,.56,2.68,12.24,12.24,0,0,0,.47,2l.13.44c0,.11.15.19.25.27l.13.1h.06l.19-.14.16-.14v-.1a1,1,0,0,0,0-.25Q3.16,66.4,2.25,62.66Z"/><path class="cls-4" d="M58,39.51l0,0a.92.92,0,0,0-.6-.25,1.58,1.58,0,0,0-.71.24l-.29.15c-1.13.59-2.3,1.2-3.42,1.86a58.18,58.18,0,0,0-6.58,4.68l-1.56,1.22c-1.1.86-2.24,1.75-3.32,2.66l-.66.55c-1.82,1.52-3.69,3.09-5.41,4.79s-3.47,3.8-5.07,5.72L28.8,63a5.94,5.94,0,0,0-.63,1c-.07.14-.15.28-.23.42s0,.07.08.14l.07.08,0,0h0a3,3,0,0,0,1.14-1l.08-.09,1.88-2.25,1.53-1.83a41.5,41.5,0,0,1,4.71-4.85c1.44-1.24,2.95-2.45,4.4-3.62l1.71-1.38,1-.77c.55-.43,1.09-.85,1.6-1.3a59.49,59.49,0,0,1,11.06-7.5,3.59,3.59,0,0,0,.5-.33l.21-.2,0,0Z"/><path class="cls-4" d="M39.3,109a9.81,9.81,0,0,0-1.84-1.57c-.33-.24-.67-.48-1-.75A26,26,0,0,0,29.76,103l-.2-.08a8.24,8.24,0,0,0-3.26-.61c-.36,0-.72,0-1.08,0a.83.83,0,0,0-.42.36.84.84,0,0,0,.78.42l.27,0h.45a10.44,10.44,0,0,1,4.29,1.11l.16.07c.71.33,1.45.67,2.15,1,3.92,2.09,6.48,4.46,8,7.46a5.24,5.24,0,0,0,.49.78.53.53,0,0,0,.23.14l.12,0h.06a.81.81,0,0,0,.08-1A17.88,17.88,0,0,0,39.3,109Z"/><path class="cls-4" d="M132,269.86a4,4,0,0,1,.68,1.6,5.37,5.37,0,0,1-1.23,4.65c-1.09,1.18-2.15,2.37-3.27,3.51s-2.33,2.16-3.44,3.31l-2.3,2.44c-2.16,2.28-4.51,6-8.15,5.25a9.83,9.83,0,0,1-3-1.24c-1.71-1.05-3.44-2.06-5.09-3.2-2.77-1.91-5.66-3.64-8.49-5.47-2.36-1.52-4.63-3.19-6.93-4.8-3.35-2.34-6.68-4.7-10.21-6.74a31.21,31.21,0,0,1-5.18-3.8,3.78,3.78,0,0,1-.57-4.84,16.65,16.65,0,0,1,1.54-1.82c2.82-3.13,5.75-6.1,8.83-9,.87-.81,1.71-1.65,2.54-2.5,2-2,5-3,7.58-1.43,3.41,2,6.69,4.19,10,6.32,4.15,2.64,8.28,5.3,12.5,7.83,1.21.73,2.43,1.45,3.65,2.16,1.59.92,3.09,2,4.6,3,1.35.92,2.73,1.84,4,2.84A8.61,8.61,0,0,1,132,269.86Zm-55.43-4.39a9.18,9.18,0,0,0,1.29,1c5.28,3.33,10.53,6.69,15.68,10.23,3.31,2.27,6.71,4.41,10,6.66,1.68,1.13,3.42,2.15,5.14,3.23,1.12.71,2.29,1.35,3.41,2.07a5,5,0,0,0,4.15,1,7.88,7.88,0,0,0,3.33-2.62c2.37-2.72,5-5.22,7.5-7.82q1.5-1.55,3-3.11a5.64,5.64,0,0,0,1.79-3.85,4.77,4.77,0,0,0-2.31-3.56q-3.61-2.52-7.34-4.88c-3.2-2-6.47-3.94-9.68-5.94-3.58-2.22-7-4.63-10.58-6.87-1.58-1-3.12-2-4.67-3.06-1.84-1.22-4-2.41-6.31-2a8.31,8.31,0,0,0-3,2.21c-.31.37-.7.68-1,1-2.27,2.31-4.68,4.48-6.86,6.89-1.07,1.17-2.27,2.22-3.37,3.37a6.51,6.51,0,0,0-1.39,1.91A3.56,3.56,0,0,0,76.57,265.47Z"/><path class="cls-6" d="M126.82,270.49a.48.48,0,0,1,0,.23,4.69,4.69,0,0,1-1,1.17c-.34.38-.67.78-1,1.16q-4.42,4.92-8.83,9.86c-.53.59-1.06,1.19-1.63,1.75-.82.81-1.58.31-2.4-.27-1-.74-2.1-1.39-3.19-2.06-2.13-1.33-4.23-2.73-6.33-4.1-4.19-2.72-9.68-6.41-13.87-9.11l-3.81-2.44-1.91-1.23c-.63-.39-1.84-.79-1.34-1.8a4.76,4.76,0,0,1,.76-.8c.5-.53,1-1.07,1.5-1.59,2-2.05,4-4.16,5.85-6.31,1.26-1.42,2.63-2.73,4-4.08.86-.86,1.5-.55,2.42,0,4.28,2.63,9.81,6.29,14.09,8.92q7.67,4.71,15.34,9.42C125.88,269.51,126.85,269.86,126.82,270.49Z"/><path class="cls-4" d="M120.86,281.15c-.3,0-.72-.29-.45-.61s.38-.52.73-1c.15-.17,0-.1.28-.4a.69.69,0,0,1,.73-.2.42.42,0,0,1,.33.54c-.08.28-.19.31-.37.53,0,0-.25.32-.38.46-.37.4.28-.26-.12.11-.21.2-.4.49-.71.52Z"/><path class="cls-4" d="M261.18,364.66c1.16-7,2.28-13.66,3.4-20.41-.38-.4-.74-.82-1.14-1.18-1.81-1.64-3.58-3.33-5.47-4.89-1.62-1.33-2.88-3-4.41-4.4-2.53-2.32-5-4.72-7.49-7-1.75-1.63-3.54-3.21-5.3-4.82-1-.9-.86-1.61.19-2.45l4.7-3.82a3,3,0,0,0,.27-.23c1.72-1.76,3.7-3.21,5.55-4.82,1.24-1.08,2.55-2.1,3.81-3.16q2.61-2.18,5.19-4.37l5.89-5,6.43-5.49c.28-.24.53-.51.83-.79.34-2.15.66-4.33,1.05-6.49a53.7,53.7,0,0,1,1.09-6.41l1.62,1a6.48,6.48,0,0,1,0,2.56c-.32,2.74-.69,5.46-1.05,8.19-.32,2.36-.66,4.71-1,7.08s-.55,4.61-.86,6.92-.63,4.35-.94,6.53c-.3,2-.59,4-.89,6-.26,1.75-.52,3.51-.8,5.26-.31,2-.65,4-1,6q-.81,4.69-1.64,9.39c-.45,2.53-.88,5.06-1.35,7.58-.51,2.7-1,5.4-1.59,8.1-.78,3.77-1.61,7.53-2.43,11.29-.25,1.2-.53,2.39-.8,3.58-.2.91-.72,1.25-1.46.58s-1.74-1.55-2.59-2.35c-3.3-3.11-6.6-6.21-9.88-9.34q-5.33-5.08-10.61-10.19-5.76-5.56-11.48-11.14L212.77,322l-9.11-8.82c-1.36-1.32-2.9-2.62-3.07-4.63s.08-4.57,1.54-6.22c.33.15.26.39.16.59-1.09,2.26-.29,4.17,1.42,5.81q4.83,4.64,9.64,9.31c1.32,1.28,2.6,2.6,3.92,3.87s3,2.73,4.43,4.14c2.19,2.12,4.36,4.28,6.54,6.44,2.6,2.59,5.1,5.3,7.82,7.76,3.87,3.49,7.48,7.24,11.27,10.81,2.73,2.55,5.34,5.23,8,7.86l5,4.9C260.52,364.08,260.75,364.27,261.18,364.66Zm4.45-58.08c0-.18,0-.36.05-.59a16.53,16.53,0,0,0-2.85-2.47l-.44.47c.9.81,1.75,1.58,2.62,2.32a2.21,2.21,0,0,0,.67.23c-.27.81-1,1.19-1.62,1.67a45.84,45.84,0,0,0-4.21,3.54,8.77,8.77,0,0,1-1,.75,4.89,4.89,0,0,1-1.65-1.26,8.24,8.24,0,0,0-1.63-1.4l-.39.17c0,.1,0,.24.11.31.7.69,1.4,1.37,2.11,2a1,1,0,0,1,.45,1.13c-2.19,1.66-4.08,3.94-6.6,5.64-.48-.43-.93-.84-1.38-1.23s-1-.87-1.55-1.29c-.21-.16-.43-.19-.67.14a24.46,24.46,0,0,0,3.06,2.77c-.54.61-1.06,1.11-1.58,1.61-.71.68-1.42,1.35-2.1,2.05-.09.08,0,.3-.07.59l.71-.47c1.43-1.06,2.66-2.34,4-3.46,2-1.61,3.91-3.33,5.85-5,.78-.68,1.53-1.41,2.33-2.08,1.36-1.14,2.75-2.23,4.12-3.36q3.18-2.62,6.35-5.28a2.57,2.57,0,0,0,.38-.57l-.41-.28-3.6,2.77A1.69,1.69,0,0,1,265.63,306.58Zm-.18,35.76c.56,0,1.12-3.84,1.21-4.29.36-1.93.7-3.86,1-5.8.44-2.46.84-4.94,1.24-7.41s.8-5.07,1.22-7.6c.45-2.71.92-5.42,1.38-8.13l1.32-7.77c.28-1.68.58-3.37.83-5.06a3.47,3.47,0,0,0,0-1.16c-.47-.08-.55.32-.61.73-.25,1.74-.49,3.5-.76,5.24-.07.48-.28.94-.34,1.42-.31,2.36-.68,4.7-1.2,7-.29,1.31-.45,2.64-.68,4-.1.6-.21,1.2-.31,1.8-.24,1.57-.45,3.14-.72,4.7-.2,1.14-.56,2.25-.72,3.39-.38,2.6-.71,5.2-1.2,7.78-.16.9-.4,1.79-.56,2.69-.41,2.41-.82,4.81-1.2,7.22,0,.29-.28,1,0,1.22A.13.13,0,0,0,265.45,342.34ZM252,328.66c.38-.29.77-.58,1.13-.9,1.66-1.43,3.3-2.9,5-4.32,2.24-1.9,4.51-3.75,6.77-5.63.79-.66,1.59-1.33,2.36-2,.57-.53,1.09-1.12,1.63-1.67a.47.47,0,0,0-.71-.09c-.49.37-1,.76-1.42,1.16a3.18,3.18,0,0,1-1.55.94c-.63-.5-1.23-1-1.88-1.48s-1-1.18-2-1.26c.08.27.08.48.19.58a19,19,0,0,0,1.51,1.32,6.75,6.75,0,0,1,1.55,1.46c-.08.18-.09.33-.17.4q-2.31,2-4.64,3.88c-1.26,1.06-2.56,2.07-3.78,3.18-1.44,1.3-2.86,2.64-4.38,3.85-.07.06-.08.22-.13.36Zm11.51-2.22c-1.83,1.67-3.6,3.25-5.35,4.86-.54.49-1,1-1.55,1.54l.13.13c.11,0,.25,0,.33-.08.67-.52,1.35-1.05,2-1.59,2.25-1.87,4.5-3.76,6.74-5.64a11.11,11.11,0,0,0,1.05-1c.07-.09,0-.3,0-.52-1.16.14-1.53,1.31-2.58,1.62-.49-.37-1-.77-1.54-1.18l-1.65-1.32c-.1.14-.17.2-.16.23C261.39,324.73,262.79,325.17,263.47,326.44Zm1,8.71a16.49,16.49,0,0,0-3.21,2.88l.55.49c.91-1.09,2.23-1.7,3-2.88Zm.27-2.09c.07-.23.11-.39.18-.63-.7-.58-1.39-1.16-2.1-1.72-.09-.07-.28,0-.6,0A13.27,13.27,0,0,0,264.77,333.06Zm3.81-25.76c.26.3.51.63.8.92s.41.21.52-.12A1.31,1.31,0,0,0,268.58,307.3Zm3.19-9.78c0-.87,0-.87-.64-1.18-.07.15-.13.29-.2.47Z"/><path class="cls-4" d="M265.52,367.2c-.12,0-.18-.11-.16-.42.08-.82,1.62-1.72,2.17-2.2,1-.89,2.1-1.69,3.09-2.6a134.1,134.1,0,0,1,10.89-8.72c.54-.4,1-.85,1.55-1.3,5.89-5.19,11.78-10.4,18-15.2A53.75,53.75,0,0,0,305.8,333c1.77-1.72,3.76-3.2,5.6-4.84,2.86-2.54,5.86-4.87,8.73-7.38,2.17-1.89,4.31-3.8,6.47-5.69L331,311.2c.88-.76,1.77-1.5,2.67-2.23,2-1.67,4.09-3.31,6.11-5,2.21-1.84,4.39-3.7,6.59-5.55q1.26-1.06,2.55-2.1l7-5.63c1-.81,2-1.65,3-2.39.53-.37,1-.95,1.74-.9.76.52-2,2.43-2.4,2.78-2.13,1.74-4.31,3.41-6.42,5.18-2.71,2.28-5.57,4.39-8.14,6.85-.39.37-.86.67-1.29,1l-8.79,7.2c-1.9,1.55-3.81,3.07-5.7,4.63-1.41,1.17-2.79,2.38-4.19,3.57-1.95,1.66-3.85,3.39-5.87,5-1.45,1.14-2.69,2.49-4.09,3.67s-2.67,2.34-4.09,3.4a19.31,19.31,0,0,0-2,1.65,48.84,48.84,0,0,1-4.49,3.76,103.75,103.75,0,0,0-8.36,6.87,17.09,17.09,0,0,1-1.55,1.29,54.09,54.09,0,0,0-4.45,3.83c-1,1-2.15,1.82-3.22,2.73-1.63,1.38-3.34,2.66-5,4-2.85,2.3-5.84,4.43-8.5,7-1.16,1.12-2.33,2.23-3.56,3.27a12.86,12.86,0,0,1-2.48,1.88A1.74,1.74,0,0,1,265.52,367.2Z"/><path class="cls-4" d="M279.47,278.74l-.38-.41c.48-.38.94-.77,1.42-1.14,6.13-4.59,12.28-9.14,18.37-13.78,5.36-4.08,10.63-8.28,15.95-12.41s10.37-8,15.55-12q12.28-9.49,24.57-19,9.6-7.41,19.22-14.79c.38-.29.79-.55,1.17-.81.5.35.35.71.08,1-.69.61-1.41,1.17-2.14,1.73l-7,5.32c-.73.56-1.43,1.17-2.19,1.66-1.9,1.24-3.62,2.71-5.42,4.09l-5.7,4.32c-.68.52-1.38,1-2.08,1.51-.25.18-.53.32-.76.52-2.87,2.47-5.92,4.73-8.9,7.09-3.5,2.78-7,5.6-10.6,8.19-2.45,1.74-4.82,3.56-7.14,5.44-1.76,1.43-3.54,2.82-5.32,4.22a4.58,4.58,0,0,1-.43.34c-2.16,1.31-3.91,3.13-5.91,4.65-2.34,1.78-4.68,3.55-7,5.34-1,.78-2,1.61-3,2.39-2.13,1.65-4.28,3.28-6.43,4.9-.78.59-1.62,1.1-2.4,1.69-2.54,1.92-5,3.87-7.59,5.79-1.66,1.26-3.34,2.48-5,3.71C280.1,278.42,279.82,278.54,279.47,278.74Z"/><path class="cls-4" d="M236.78,281.81c.48.79,4.76,4.94,5.39,5.52s1.38,1.2,2.08,1.8c1.58,1.35,3.14,2.73,4.76,4,2.48,2,4.72,4.24,7,6.47a13.46,13.46,0,0,0,1.32,1c1.35-1.07,5.81-5.28,7.1-6.31s2.56-2.09,3.87-3.09c.84-.65,1.54-1.47,2.38-2.13.32-.26.85-.79,1.3-.81.29,0,.94.14.42.6-2.24,2-4.53,3.89-6.89,5.7-1.17.89-5.57,4.92-6.7,5.86-.48.39-.95,1.17-1.65,1-.52-.1-1.12-.94-1.49-1.3-1.29-1.23-2.56-2.47-3.84-3.71-.13-.12-.25-.27-.39-.38-3-2.23-5.55-5-8.48-7.29-1.15-.91-5.82-5.55-6.91-6.53a2.08,2.08,0,0,1-.3-.43,2,2,0,0,1,.91-1.13c1.46-1.21,6.12-5.59,7.59-6.79,3.22-2.63,6.44-5.28,9.67-7.91l12.53-10.21c.52-.43,2.47-2.3,3-2.72a7.18,7.18,0,0,1,1.7-1.16c.49.39,1,.74,1.45,1.14,2.8,2.45,9.26,8.48,11.95,11.07.7.67,1.48,1.28,2.2,1.94a.39.39,0,0,1,0,.65c-1.74-1.43-3.49-2.85-5.14-4.4-2.13-2-7.87-7.64-10.29-9.47a7.23,7.23,0,0,0-.91.48c-1.27,1-3.92,3.43-5.22,4.33-2.26,1.58-4.22,3.51-6.42,5.16-.58.44-1.09,1-1.64,1.46l-2.52,2.13-2.25,1.89c-1,.82-2,1.68-3,2.47-2.36,1.84-7.93,6.83-10.29,8.68-.67.52-1.28,1.13-1.9,1.72A2.8,2.8,0,0,0,236.78,281.81Z"/><path class="cls-4" d="M319.06,245.17c.24-.19.71-.12.72.24s-.55.48-.73.62c-.71.55-1.41,1.12-2.12,1.68q-2.08,1.66-4.2,3.27c-3.81,2.86-7.6,5.75-11.29,8.78-1.27,1-2.65,2-4,3-1.51,1.14-3,2.29-4.53,3.43s-2.76,2-4.13,3.05-2.81,2.16-4.23,3.22c-.93.69-1.91,1.33-2.85,2a7,7,0,0,0-1,.83,14.91,14.91,0,0,1-2,1.71c-.34.24-.93.95-1.41.81-.83-.23.19-.91.54-1.18,1.19-1,2.39-1.9,3.61-2.82s2.59-1.85,3.86-2.81c1.51-1.14,2.94-2.38,4.49-3.47,1.95-1.37,3.81-2.86,5.71-4.3s3.77-2.9,5.65-4.35c.58-.45,1.17-.89,1.75-1.35.81-.64,1.61-1.31,2.42-1.95,1.16-.91,2.31-1.81,3.49-2.69,1.75-1.32,3.53-2.61,5.29-3.94C315.77,247.71,317.36,246.47,319.06,245.17Z"/><path class="cls-4" d="M300.74,226.81a6.08,6.08,0,0,0-1,0c-1.64.13-2.34.93-3.6,1.87q-4.24,3.17-8.53,6.32c-1,.72-2,1.45-2.91,2.2-1.3,1-2.55,2.11-3.86,3.11-2.27,1.76-4.58,3.47-6.88,5.2-1.07.8-2.17,1.58-3.24,2.39s-2,1.47-2.91,2.24c-3.3,2.69-6.64,5.34-10,8-1.38,1.09-2.69,2.3-4.13,3.31a32.79,32.79,0,0,0-2.89,2.37l-7,5.33a3.54,3.54,0,0,0-.51.35c-1.52,1.24-3,2.48-4.57,3.69-.67.52-1.41,1-2.09,1.47-.93.7-1.82,1.44-2.75,2.14-2.81,2.15-5.64,4.28-8.45,6.44-2,1.57-4,3.2-6,4.78-3,2.38-6.08,4.73-9.13,7.09-1.1.86-2.25,1.68-3.33,2.57s-2.19,1.94-3.27,2.92c-.17.15-.37.36-.13.63.4.07.64-.25.9-.46.57-.46,1.09-1,1.65-1.45,1.81-1.46,3.65-2.87,5.43-4.37,2-1.69,4.08-3.3,6.24-4.81.5-.35,1-.75,1.47-1.07a41.14,41.14,0,0,0,3.54-2.91c1.56-1.27,3.13-2.53,4.77-3.71,2.73-2,5.31-4.11,8.06-6.05,1.14-.81,2.21-1.73,3.32-2.58,1.45-1.12,2.94-2.19,4.37-3.33a9.89,9.89,0,0,0,.81-.64l6.07-4.83.2-.15,6.44-5.17c1.67-1.33,3.35-2.66,5-4s3.3-2.53,4.94-3.81c.67-.53,1.29-1.13,2-1.64,3.22-2.43,6.42-4.88,9.67-7.26,3.65-2.67,7.2-5.48,10.81-8.22.82-.62,1.75-1.13,2.54-1.8,1.82-1.54,3.86-2.79,5.71-4.28a4,4,0,0,1,2.55-1c.92,0,2.23.83,3.05.24A3,3,0,0,0,300.74,226.81Z"/><path class="cls-7" d="M52.88,300q-5.33-6-10.68-11.89L35,280q-5.77-6.43-11.52-12.87c-1.8-2-3.62-4-5.42-6L7.48,249.38c-.48-.54-1-1-1.55-1.62-.43.23-.81.41-1.18.62l-13.41,8q-12.93,7.72-25.86,15.46c-.89.53-1.73,1.15-2.57,1.77a5.48,5.48,0,0,0-1.8,2.49,10.87,10.87,0,0,0-.37,5.5c.4.56.79,1.18,1.25,1.75l11.27,13.8q5.41,6.62,10.83,13.22l8.84,10.81q5.64,6.9,11.29,13.79c.89,1.09,1.79,2.17,2.7,3.25a3.66,3.66,0,0,0,2.54,1.32,1,1,0,0,0,1.09-.61,5.88,5.88,0,0,1-1.64-2.53,10.5,10.5,0,0,1,0-2.75,6.85,6.85,0,0,1,3.11-4.38c.32-.17.63-.38.94-.58L29.91,318q9.78-6.21,19.53-12.42c1.5-.95,3-2,4.44-2.95.09-.06.13-.2.22-.34v-.82C53.66,300.91,53.29,300.43,52.88,300Zm-12.08.55-13.32,8.12-14.41,8.79c-.73.45-1.46.88-2.23,1.33l-4.16-4.55c.25-.58.81-.75,1.25-1,2.77-1.67,5.57-3.31,8.35-5L36.77,296c.26-.15.53-.28,1-.52,1.23,1.57,2.67,2.81,3.81,4.23C41.48,300.22,41.1,300.33,40.8,300.52Z"/><path class="cls-4" d="M2.2,342.06a30.69,30.69,0,0,0,3.47,3.74c.51.43.81,1.08,1.31,1.51a4.78,4.78,0,0,1,1.13,1.41A4.39,4.39,0,0,0,9,349.85a34.71,34.71,0,0,1,4,4.72,4,4,0,0,0,.57.7,21.2,21.2,0,0,1,2.69,3c1,1.13,1.8,2.43,2.8,3.56a55.86,55.86,0,0,1,3.72,4.69,9.5,9.5,0,0,0,1.25,1.18,11.63,11.63,0,0,0,3-1.72c1.84-1.52,3.93-2.67,5.85-4.07a34,34,0,0,0,3.76-2.55c.44-.41,1.1-.56,1.57-.94a35,35,0,0,1,4.39-3c1.58-.91,2.91-2.18,4.56-3a7.63,7.63,0,0,0,1.25-.77c1.43-1.07,3-1.83,4.53-2.77.57-.35,1.1-.77,1.66-1.15a7.14,7.14,0,0,1,1.68-1.09,3.73,3.73,0,0,0,1.3-1,9.36,9.36,0,0,1,1.89-1.44A22.69,22.69,0,0,0,62,342.42a16.17,16.17,0,0,1,1.83-1.22c1.41-.84,2.85-1.65,4.25-2.5.84-.51,1.65-1.05,2.45-1.61,1.71-1.18,3.54-2.19,5.24-3.36s3.63-2.47,5.44-3.71c2-1.39,4.11-2.66,6.17-4,1-.63,2-1.26,2.94-1.88,2.48-1.56,5-3.12,7.44-4.69.46-.29.88-.65,1.34-1l.9.21c0,.25,0,.49-.07.58a14,14,0,0,1-1.41,1.14c-1.47,1-2.91,2-4.44,2.92-2.06,1.2-3.93,2.68-6,3.77a44.87,44.87,0,0,0-3.83,2.5q-3.69,2.4-7.39,4.79A52.55,52.55,0,0,0,72,337.44c-1.94,1.54-4.2,2.5-6.25,3.82C63,343.08,60.21,345,57.48,347a53.93,53.93,0,0,1-6.61,4.26,22.5,22.5,0,0,0-3.51,2.29c-2.08,1.62-4.32,3-6.52,4.44s-4.2,2.73-6.29,4.11c-1.73,1.15-3.52,2.23-5.15,3.51-1.3,1-2.7,1.9-4.08,2.8a11.39,11.39,0,0,1-1.25.64,5.78,5.78,0,0,1-2.84-2.31c-.58-.72-1-1.52-1.61-2.24-1.54-1.9-3-3.85-4.63-5.69s-3.27-3.95-4.9-5.93a8.12,8.12,0,0,0-.61-.69,17.2,17.2,0,0,1-2.74-3.44,15,15,0,0,0-2-2.4,44.75,44.75,0,0,1-4-5,5.22,5.22,0,0,0-.78-1c-2.08-1.76-3.48-4.09-5.24-6.11-.56-.65-1.13-1.28-1.7-1.92a71.18,71.18,0,0,1-5.24-6.13c-1.47-2.09-3.09-4.08-4.64-6.12-.85-1.11-1.7-2.23-2.56-3.34a12.63,12.63,0,0,0-.95-1.11,23.27,23.27,0,0,1-2.58-3.11,12.71,12.71,0,0,0-.86-1A15.63,15.63,0,0,1-25.06,310a12.42,12.42,0,0,0-2-2.42,42.73,42.73,0,0,1-3-3.72c-1.21-1.44-2.32-3-3.5-4.44a22.26,22.26,0,0,0-1.94-2.63A39.26,39.26,0,0,1-39.36,292c-.89-1.15-1.85-2.25-2.84-3.33s-2-2.42-3.07-3.63c-.39-.47-.76-1-1.18-1.4a13.92,13.92,0,0,1-2.47-2.94,5.1,5.1,0,0,0-.72-.83,32.63,32.63,0,0,1-2.8-3.4,10.78,10.78,0,0,0-1.46-1.64,8,8,0,0,1-1.94-2.41c-.14-.31-.48-.53-.71-.8a1.25,1.25,0,0,1-.34-1.32,4,4,0,0,1,.69-.61c1-.63,2-1.36,3.11-1.9A45.9,45.9,0,0,0-49,265.28a11.14,11.14,0,0,1,1.09-.69c1.81-.9,3.46-2.07,5.19-3.11s3.63-2.29,5.52-3.28c1.51-.79,2.92-1.75,4.44-2.53a3.55,3.55,0,0,0,.62-.38c1.65-1.4,3.67-2.19,5.51-3.28,2.05-1.21,4.16-2.31,6.23-3.5,2.28-1.3,4.57-2.59,6.81-4,1.46-.9,2.82-1.94,4.25-2.88,1.63-1.08,3.26-2.16,4.94-3.16s3.65-2,5.41-3.07c3-1.83,6-3.55,9-5.29a23.18,23.18,0,0,1,3.48-2,17,17,0,0,0,2.5-1.51c.41-.25.87-.41,1.35-.64.27.23.5.42.71.62a6.75,6.75,0,0,0,1.17,1.16,11.58,11.58,0,0,1,2.75,2.66c.81.91,1.69,1.78,2.49,2.7,1.08,1.24,2.12,2.53,3.19,3.79.31.37.64.74,1,1.09q2,2.12,4.1,4.21c.3.31.59.63.91.91a21.74,21.74,0,0,1,3.93,4.57c.26.4.67.71,1,1.09a29.4,29.4,0,0,0,4.27,4.51,19.66,19.66,0,0,1,2.4,2.51c.75,1,1.7,1.76,2.53,2.65,1.55,1.65,3.07,3.33,4.62,5s3,3.07,4.47,4.61a9.84,9.84,0,0,1,1,1.27,35.8,35.8,0,0,0,2.52,3.12c2.7,3.09,5.73,5.88,8.52,8.89,1.66,1.79,3.26,3.64,4.88,5.48s3.28,3.79,5,5.66c.69.78,1.47,1.47,2.21,2.2,1.64,1.64,3.29,3.29,4.92,4.95,1,1,1.91,2,2.89,3,.38.39.85.69,1.23,1.08,2.49,2.54,5,5,7.43,7.63a25.44,25.44,0,0,1,3.47,4.74c-.08.18-.14.34-.21.49-.53,0-.8-.33-1.07-.64-.39-.47-.75-1-1.11-1.46a60.74,60.74,0,0,0-6.25-7c-2.59-2.69-5.34-5.21-7.89-7.95-2.8-3-5.59-6-8.52-8.87-1.52-1.49-2.81-3.22-4.24-4.81-1-1.14-2.09-2.24-3.14-3.36-1.42-1.52-2.82-3.05-4.26-4.54-2.13-2.2-4.06-4.56-6-6.93-.69-.85-1.53-1.58-2.29-2.38-1.8-1.91-3.61-3.83-5.4-5.75-.5-.54-1-1.08-1.47-1.65a18.48,18.48,0,0,0-3.61-3.62,5.38,5.38,0,0,1-1-1.1,15.59,15.59,0,0,0-2.7-3,8.31,8.31,0,0,1-1.84-2,19.61,19.61,0,0,0-1.86-2c-1.25-1.42-2.47-2.87-3.73-4.28-.49-.54-1.06-1-1.57-1.53-1.67-1.71-3.34-3.43-5-5.16-.5-.53-.92-1.14-1.39-1.7-1.22-1.46-2.42-2.92-3.67-4.35a23.94,23.94,0,0,0-1.84-1.79,20.52,20.52,0,0,1-2.3-2.36,14,14,0,0,0-1.16-1.15,8,8,0,0,0-1.23.51c-2.4,1.58-5,2.83-7.44,4.31a30.39,30.39,0,0,1-4.8,2.68,6.55,6.55,0,0,0-1.21.78c-.21.14-.38.33-.59.44-1.89,1-3.6,2.28-5.54,3.19a13.25,13.25,0,0,0-1.95,1.34c-1.53,1.1-3.14,2.09-4.77,3.05-1.1.65-2.1,1.45-3.15,2.19-.25.17-.48.38-.74.53-2,1.1-4,2.13-5.91,3.31-1.56.95-3.18,1.78-4.81,2.61-.43.22-.84.5-1.26.74a14.64,14.64,0,0,1-2.74,1.45,5.72,5.72,0,0,0-1,.54l-2.23,1.24a8.72,8.72,0,0,0-1.1.67,35,35,0,0,1-5.38,3.09,2.09,2.09,0,0,0-.49.26A35.17,35.17,0,0,1-43,262.84c-.3.2-.58.43-.86.65a2.77,2.77,0,0,1-.29.22c-1,.57-2,1.14-3,1.7s-1.68,1.43-2.79,1.72a1.59,1.59,0,0,0-.47.27,31.66,31.66,0,0,1-4.34,2.4,1.72,1.72,0,0,0-1.1,1.06,12,12,0,0,0,2.09,3h.37c.3.43.62.89.94,1.33a3.42,3.42,0,0,0,.67.87c2.24,1.66,3.6,4.11,5.49,6.09s3.65,4.1,5.46,6.18c.88,1,1.71,2.06,2.58,3.08.43.51.87,1,1.33,1.5a5.83,5.83,0,0,1,1.81,3.26,11.86,11.86,0,0,1,2.74,3c2.37,2.55,4.21,5.55,6.76,7.95a7.19,7.19,0,0,1,.79,1,29.12,29.12,0,0,0,2.59,3.08c1.28,1.39,2.39,2.94,3.56,4.42a4.32,4.32,0,0,1,.61.92,14.6,14.6,0,0,0,3.23,4.33,17.37,17.37,0,0,1,1.85,2.26,43.76,43.76,0,0,0,3.75,4.71q1.53,1.71,3.11,3.36a35.86,35.86,0,0,1,2.68,3c.89,1.17,1.8,2.3,2.78,3.39a2,2,0,0,1,.4.6,15.47,15.47,0,0,0,2.58,4l-.13.09Z"/><path class="cls-6" d="M18.22,389.75a2.12,2.12,0,0,1-.52-.35c-1.38-1.63-2.75-3.28-4.12-4.93a5.59,5.59,0,0,1-.42-.7,7.41,7.41,0,0,1,.8-.71c3.37-2.22,6.76-4.43,10.12-6.66,2.45-1.62,4.88-3.28,7.32-4.9,4.75-3.14,9.51-6.25,14.25-9.39,1.84-1.22,3.65-2.48,5.47-3.72l.83-.54a32.84,32.84,0,0,1,5,5.72,1,1,0,0,1-.53,1c-.91.62-1.83,1.22-2.75,1.83-3.06,2-6.12,4-9.18,6.09-.31.2-.6.42-1,.69a11.3,11.3,0,0,1,.87,1.74c1.25,4-3.29,7.28-6.85,7.45a4.08,4.08,0,0,1-3.2-1.12c-.32-.36-.62-.74-1-1.15-2.63,1.5-5.05,3.26-7.59,4.82S20.8,388.27,18.22,389.75Zm20.91-13.43c-.73-.16-1.22.78-.93,1.45.38.86,1.89.77,1.9-.28a1.35,1.35,0,0,0-.72-1.08A1,1,0,0,0,39.13,376.32Z"/><path class="cls-4" d="M-15,407.38c1-.54,1.89-1,2.73-1.48,2.62-1.59,5.17-3.27,7.84-4.77,1.72-1,3.16-2.3,4.8-3.37l4.64-3c.62-.4,1.25-.77,1.87-1.16.46-.29.91-.61,1.38-.89a39.1,39.1,0,0,0,4.86-3.29,4.24,4.24,0,0,1,1.85-.95l.54.53a3.9,3.9,0,0,1-.69.63c-1.54.76-2.79,2-4.25,2.85-2,1.24-3.94,2.68-6,3.8a27.82,27.82,0,0,0-3.69,2.41,70.39,70.39,0,0,1-6.7,4.48c-2.12,1.22-4.2,2.51-6.27,3.8a19.06,19.06,0,0,0-1.62,1.22,4,4,0,0,1-1.72.84c-.4-.48-.81-1-1.24-1.49s-.89-1-1.32-1.52c-1.93-2.3-3.58-4.81-5.68-7a29.44,29.44,0,0,1-2.37-3c-1.43-1.9-2.93-3.76-4.48-5.57-2.31-2.69-4.58-5.41-6.67-8.28-.79-1.09-1.67-2.11-2.5-3.17-.38-.49-.72-1-1.09-1.48s-.57-.79-.88-1.16c-1.25-1.5-2.47-3-3.79-4.47a51.08,51.08,0,0,1-3.15-4.05,55,55,0,0,0-4.27-5,10.79,10.79,0,0,1-1-1.33,14.09,14.09,0,0,0-1.19-1.62c-1.71-1.76-3-3.82-4.62-5.7a17.5,17.5,0,0,1-1.08-1.48,4.32,4.32,0,0,0-1.54-1.51c-1-1.29-2-2.42-2.91-3.57-.65-.81-1.26-1.65-1.9-2.47-1-1.35-2.09-2.71-3.18-4-2.45-3-4.81-6-7.06-9.14-.53-.75-1.2-1.39-1.77-2.11q-2.37-3-4.7-6.1a5.11,5.11,0,0,0-1.28-1.26,8.57,8.57,0,0,1-1.68-1.67,83.85,83.85,0,0,0-6.46-8c-1.12-1.11-2.06-2.42-3.08-3.63-.67-.8-1.38-1.56-2-2.38s-1-1.4-1.46-2.1a14.13,14.13,0,0,0-.94-1.35c-1.72-1.92-3.33-3.92-4.88-6a25.67,25.67,0,0,0-2-2.16v-1.65c.26-.19.49-.38.75-.54,2.26-1.46,4.5-2.94,6.79-4.35,3.07-1.88,6.23-3.61,9.25-5.57,1.59-1,3.24-1.95,4.78-3a34,34,0,0,1,4.59-2.69,70.87,70.87,0,0,0,7-3.94A85.26,85.26,0,0,1-66.92,269c2.25-1.13,4.33-2.53,6.47-3.82,1.42-.85,2.74-1.84,4.13-2.72,3-1.89,6-3.8,9-5.59,1.85-1.08,3.72-2.11,5.51-3.29,1.57-1,3.31-1.82,4.94-2.77,3.11-1.81,6.18-3.69,9.3-5.5,2.22-1.28,4.42-2.59,6.72-3.74.7-.35,1.37-.79,2-1.19l4.8-2.78h1.67A9.81,9.81,0,0,1-10.06,240l-.58.24c-.92-.45-1.34-1.39-2-2-.62.39-1.23.78-1.84,1.15-3.68,2.18-7.54,4.06-11.13,6.4-.71.46-1.52.78-2.26,1.2-2,1.12-3.91,2.28-5.88,3.38-1.07.59-2,1.37-3.08,1.92a16.57,16.57,0,0,0-3,1.73,9.58,9.58,0,0,0-3.08,1.58c-2,1.25-4.21,2.2-6.15,3.58a33.17,33.17,0,0,1-4.07,2.4c-1.14.58-2.15,1.4-3.26,2-2.27,1.29-4.34,2.91-6.59,4.23-1.53.9-3,1.91-4.51,2.83-.67.41-1.42.69-2.1,1.1-.94.57-1.82,1.24-2.77,1.8q-2.76,1.64-5.57,3.2c-2,1.11-4,2.14-5.94,3.28s-3.89,2.54-5.9,3.69c-2.39,1.36-4.64,3-7.1,4.21a21.09,21.09,0,0,0-2.47,1.53,44.06,44.06,0,0,1-6.64,3.87,7.36,7.36,0,0,0-1,.66.94.94,0,0,0,.27,1.07c2.35,2.73,4.72,5.44,7.08,8.17a6,6,0,0,1,.67.86,30.24,30.24,0,0,0,4.73,5.79c.63.66,1.22,1.36,1.82,2,.2.23.36.5.57.73,1.62,1.74,3,3.66,4.54,5.52,1,1.19,1.86,2.42,2.82,3.62s2.12,2.68,3.26,3.94a28.1,28.1,0,0,1,2.5,3.15,12.33,12.33,0,0,0,1,1.05c.75.88,1.49,1.77,2.21,2.68,1.39,1.78,2.71,3.63,4.17,5.35.91,1.06,1.84,2.11,2.69,3.23,1,1.35,2.09,2.7,3.13,4.06.15.19.27.41.43.59a76.64,76.64,0,0,1,4.9,6.17c1.26,1.65,2.55,3.27,3.86,4.89.34.42.8.75,1.16,1.17.76.87,1.5,1.76,2.24,2.65.94,1.13,1.83,2.3,2.82,3.39,1.36,1.49,2.5,3.16,3.79,4.72a41.89,41.89,0,0,0,4.57,5.21,3.29,3.29,0,0,1,1.12,1.65,4.44,4.44,0,0,0,1.2,2,48.14,48.14,0,0,1,4.05,5c1.87,2.58,4.07,4.87,6.14,7.28.51.6,1,1.23,1.5,1.85a17.76,17.76,0,0,0,1.27,1.57,22,22,0,0,1,2.7,3.46,18.77,18.77,0,0,0,1.53,1.81c.24.28.55.51.76.8,1.75,2.52,4,4.67,5.76,7.15A7.81,7.81,0,0,0-15,407.38Z"/><path class="cls-6" d="M17.81,347.93a1.58,1.58,0,0,1,.35-.53c.54-.4,1.1-.77,1.67-1.13.82-.52,1.68-1,2.5-1.53,1-.65,2.05-1.33,3.08-2a2,2,0,0,0,.31-.2,30.5,30.5,0,0,1,5.58-3.83,1.29,1.29,0,0,0,.16-.09c1.63-1.51,3.66-2.42,5.51-3.6.56-.36,1.09-.78,1.64-1.15.77-.51,1.55-1,2.31-1.5,1.52-1,3-2.07,4.56-3s3.15-1.88,4.81-2.87a8.82,8.82,0,0,1,1.85-1.59q2.59-1.72,5.16-3.51c.8-.55,1.53-1.22,2.34-1.76,1.48-1,3-1.89,4.5-2.83l4-2.55c2.67-1.72,5.24-3.6,8-5.12.52-.28.93-.77,1.43-1.11.91-.63,1.84-1.21,2.83-1.86l.76.82a5.39,5.39,0,0,1-.66.68q-1.91,1.28-3.83,2.53c-1.22.8-2.47,1.57-3.66,2.41-3,2.1-6.34,3.7-9.3,5.87a11.93,11.93,0,0,1-1.85,1.16,24.46,24.46,0,0,0-3.81,2.53c-.55.39-1.06.84-1.64,1.18-2.31,1.38-4.45,3-6.66,4.55a15,15,0,0,1-3,1.77,5.62,5.62,0,0,0-1.2.81c-.73.56-1.42,1.17-2.16,1.7-1.68,1.21-3.51,2.21-5.18,3.45-.83.62-1.8,1.05-2.66,1.62-3.92,2.6-7.87,5.16-11.68,7.93-.74.54-1.58.93-2.36,1.41-.62.38-1.23.79-1.85,1.17a6.12,6.12,0,0,1-1.13.6A.57.57,0,0,1,17.81,347.93Z"/><path class="cls-6" d="M75.08,302.62c.21.05.32.23.26.59-.24,1.44-2.23,1.85-3.22,2.48-1.76,1.15-3.55,2.24-5.29,3.44-3.36,2.33-6.75,4.55-10.22,6.71-4.08,2.55-8.34,4.81-12.26,7.6-1.3.93-2.63,1.79-4,2.68-2.18,1.47-4.51,2.7-6.69,4.15-1.94,1.27-4,2.41-5.84,3.77-3.21,2.33-6.54,4.51-9.85,6.71-1.37.91-2.81,1.71-4.21,2.56l-.59-.36c.14-.22.22-.48.39-.59a38.07,38.07,0,0,1,3.36-2.2,30.46,30.46,0,0,0,3.28-2.32c.25-.18.48-.39.74-.55,1.44-.91,2.78-2,4.2-2.9,4.15-2.67,8.47-5.23,12.73-7.8,1.2-.73,2.34-1.56,3.47-2.38,1.86-1.35,3.77-2.62,5.69-3.87,2.16-1.41,4.35-3.51,6.93-4.08a1,1,0,0,0,.32-.19c3.47-2.6,7.23-4.81,10.79-7.28,1.84-1.27,3.61-2.61,5.49-3.82C71.1,304.65,74.14,302.39,75.08,302.62Z"/><path class="cls-6" d="M21.4,353.42l-.39-.7a3.09,3.09,0,0,1,.59-.65c1.51-.91,3-1.79,4.57-2.68a9.86,9.86,0,0,0,1.06-.72c2.35-1.87,5-3.34,7.44-5.05a25.78,25.78,0,0,1,3.89-2.41,7.08,7.08,0,0,0,1-.73c2-1.36,3.9-2.73,5.87-4.07.6-.4,1.28-.69,1.91-1.05,2.08-1.18,4-2.55,6-3.92,1-.67,2-1.23,3-1.83,1.67-1,3.34-2,5-3.07,1.14-.71,2.32-1.35,3.46-2.06,1.92-1.2,3.78-2.51,5.59-3.85s3.62-2.5,5.45-3.71c1.28-.84,2.63-1.56,3.91-2.39,1.64-1,3.36-2,4.93-3.14.09-.07.23-.06.44-.1.1.15.23.32.38.52a6.13,6.13,0,0,1-2.29,1.88c-3,1.87-6.07,3.64-9,5.57-2.46,1.61-4.79,3.4-7.2,5.08a25,25,0,0,1-3.26,2c-1.54.75-2.84,1.87-4.35,2.66-1.79.93-3.31,2.31-5.19,3.07a1.56,1.56,0,0,0-.47.27,41.7,41.7,0,0,1-5.94,3.91l-.77.5-7.89,5.33a7.71,7.71,0,0,1-.75.52,12,12,0,0,0-2.6,1.69,13.34,13.34,0,0,1-2,1.28c-2,1.19-3.87,2.54-5.8,3.82C25.86,350.81,23.68,352,21.4,353.42Z"/><path class="cls-4" d="M12.12,338.09l-.39-.29c.07-.15.09-.37.21-.46a21.47,21.47,0,0,1,1.92-1.41q14.43-9.15,28.86-18.27c2.85-1.79,5.7-3.59,8.56-5.36a7.7,7.7,0,0,1,2.22-1.15l.29.44a4.19,4.19,0,0,1-.61.58c-1.6,1-3.2,2.05-4.82,3q-7.95,4.77-15.67,9.89c-3.31,2.2-6.76,4.18-10.13,6.3-1.81,1.14-3.57,2.35-5.36,3.53L13,337.61C12.74,337.8,12.4,337.94,12.12,338.09Z"/><path class="cls-4" d="M57.64,361.19c-.06-.21-.11-.37-.18-.59.46-.33.89-.66,1.35-1,3.44-2.23,6.67-4.75,10-7.11l1.65-1.17,6.08-4.14c1.46-1,3-2,4.4-3a25,25,0,0,0,3.17-2.33c-.95-1.09-1.86-2.14-2.78-3.18s-2-1.95-2.87-3.1l.66-.43a1,1,0,0,1,.37.12c.48.46,1,.93,1.43,1.42,1.57,1.71,3.14,3.43,4.69,5.16.08.08.08.22.15.43a2.84,2.84,0,0,1-.47.44c-.25.14-.59.17-.83.33q-3.74,2.47-7.45,5c-3,2.05-6.14,4-9.06,6.2-2.45,1.84-5.07,3.39-7.47,5.29A7.33,7.33,0,0,1,57.64,361.19Z"/><path class="cls-4" d="M50.65,309.06l.22.63c-3.47,2.3-6.93,4.6-10.43,6.84-9.58,6.14-19,12.53-28.68,18.49,0,0-.09,0-.15-.06-.24-.26,0-.49.12-.63.61-.5,1.23-1,1.89-1.45q2.67-1.77,5.4-3.46c1.24-.77,2.51-1.48,3.77-2.23a12.19,12.19,0,0,0,1.24-.77C28,323.5,32.15,321,36.26,318.3s8.22-5.31,12.34-7.95C49.26,309.92,49.94,309.51,50.65,309.06Z"/><path class="cls-4" d="M50.62,306.53l.34.28c0,.11,0,.27-.08.32-1.36.93-2.72,1.86-4.1,2.77q-6.51,4.29-13,8.56c-2.41,1.57-4.84,3.1-7.25,4.66-2,1.3-4,2.62-6,3.92-2.35,1.53-4.73,3-7.08,4.55-.51.34-1,.74-1.5,1.14l-.21-.48a3.17,3.17,0,0,1,1.41-1.44q4.08-2.62,8.2-5.21c1.08-.69,2.17-1.36,3.25-2.06,2.87-1.86,5.71-3.77,8.66-5.51,2-1.22,4-2.66,5.94-4q5.28-3.49,10.57-7Z"/><path class="cls-6" d="M55.62,308.17l-.36-.35a3,3,0,0,1,1.35-1.37,33.2,33.2,0,0,0,3.2-2.09,35.73,35.73,0,0,1,4.76-3.07c1.87-1.13,3.76-2.24,5.64-3.36l1.18-.67.59.54a1.08,1.08,0,0,1-.64.93c-1.63,1-3.24,1.95-4.88,2.89-.73.43-1.53.73-2.26,1.17-1.72,1-3.41,2.11-5.11,3.18C58,306.67,56.85,307.39,55.62,308.17Z"/><path class="cls-6" d="M67.19,292.14c.18.15.37.29.58.45a1.81,1.81,0,0,1-.28.49,39.3,39.3,0,0,1-3.64,2.39c-1.71,1.06-3.4,2.12-5.11,3.16-.67.41-1.38.74-2.1,1.11l-.63-.56a29.24,29.24,0,0,1,3.7-2.41c1.21-.82,2.44-1.6,3.68-2.37S65.89,292.91,67.19,292.14Z"/><path class="cls-6" d="M47.44,289.9l-.36-.6a26.31,26.31,0,0,1,2.55-1.8c2-1.07,3.81-2.42,5.74-3.58a12.18,12.18,0,0,1,2.57-1.45l.52.46c-.06.16-.07.32-.15.37-.55.39-1.09.79-1.67,1.13-1.55.95-3.11,1.89-4.7,2.78-.37.21-.7.45-1.06.67C49.81,288.56,48.69,289.18,47.44,289.9Z"/><path class="cls-6" d="M62.91,286.83l.41.57a5.73,5.73,0,0,1-2,1.62,21.62,21.62,0,0,0-3.11,1.91,25.9,25.9,0,0,1-3.11,1.91c-1,.63-2,1.32-3.13,2l-.58-.51a22.1,22.1,0,0,1,3.06-2.12,23.21,23.21,0,0,0,3.37-2.2,5.91,5.91,0,0,1,1.23-.8,11.63,11.63,0,0,0,2-1.31A11.85,11.85,0,0,1,62.91,286.83Z"/><path class="cls-6" d="M25.6,265.2l-.53-.62a25,25,0,0,1,3-2.18c1-.77,2.06-1.51,3.1-2.27,1.24-.23,1.92-1.49,3.33-1.73.25,0,.45.28.45.7-.08.09-.13.23-.23.28a12.19,12.19,0,0,0-2.16,1.31c-2,1.41-4.05,2.71-6.08,4.05C26.19,264.91,25.91,265,25.6,265.2Z"/><path class="cls-6" d="M26.23,248.55l.62.7a54.6,54.6,0,0,1-10.16,6.36l-.33-.3c0-.1.06-.26.14-.31.82-.53,1.65-1,2.46-1.56,1.92-1.29,3.82-2.61,5.73-3.91Z"/><path class="cls-6" d="M39,263.12l.26.36a6.47,6.47,0,0,1-2.1,1.9c-.93.58-1.89,1.1-2.82,1.68-1.53,1-3,1.94-4.61,2.94-.18-.2-.33-.37-.52-.6,3.07-2.06,6-4.22,9.18-6A3.85,3.85,0,0,1,39,263.12Z"/><path class="cls-6" d="M30.41,253.29l.47.43c-.05.16,0,.31-.11.39-.31.29-.59.7-1,.82-1.19.39-2,1.38-3.08,1.88a10.34,10.34,0,0,0-1.38.92l-.72.19c-1,1.2-2.39,1.55-3.52,2.43-.08-.26-.12-.42-.19-.68,1.53-1.09,3-2.2,4.6-3.26.9-.62,1.87-1.15,2.8-1.74C29,254.25,29.63,253.8,30.41,253.29Z"/><path class="cls-6" d="M43.1,268.21c-.08.45-.06.67-.16.78a4,4,0,0,1-.91.89c-1.09.66-2.23,1.24-3.32,1.9a14.39,14.39,0,0,0-1.91,1.4,11,11,0,0,1-2.36,1.47l-.56-.41a64.29,64.29,0,0,1,8-5.62A6.11,6.11,0,0,1,43.1,268.21Z"/><path class="cls-6" d="M43.14,284.83c0-.39-.06-.55-.08-.75l10.26-6.69.43.41c-.11.35-.1.52-.18.57C50.17,280.49,46.85,282.75,43.14,284.83Z"/><path class="cls-6" d="M47.59,273.44a1.24,1.24,0,0,1-.71,1c-1.52.9-2.76,2.2-4.34,3a21.33,21.33,0,0,0-2,1.35c-.55.37-1.13.7-1.76,1.09l-.51-.6c.39-.31.69-.6,1-.83,1.57-1.06,3.17-2.06,4.71-3.15a16.7,16.7,0,0,1,2.69-1.89A.68.68,0,0,1,47.59,273.44Z"/><path class="cls-6" d="M12.53,250.83l-.37-.47a5.82,5.82,0,0,1,2.24-1.86,63,63,0,0,0,5.71-3.88,6.45,6.45,0,0,1,.66-.38l.59.57a2.92,2.92,0,0,1-.57.72c-1,.68-2,1.32-3.06,2Z"/><path class="cls-4" d="M53.2,309.88l-.42-.18a6.66,6.66,0,0,1,.35-5.71c.17.1.28.14.38.21a1.12,1.12,0,0,1,.1.16c-.18,1.07-.35,2.14-.54,3.24C53.06,308.34,53.59,309.08,53.2,309.88Z"/><path class="cls-8" d="M-1.27,317.56l-1.76-2c-1.16-1.35-2.37-2.75-3.45-4.22-1.4-1.9-2.92-3.76-4.39-5.56l-1.89-2.32-.46-.58c-.34-.43-.68-.86-1-1.28l-2.07-2.48q-1.86-2.2-3.69-4.43-2-2.43-3.93-4.86l-2.88-3.56q-2.31-2.85-4.67-5.66l-.17-.21a6.92,6.92,0,0,0-1.88-1.72.91.91,0,0,1-.13-.08h0l0,0-.17.42,0,.14.15.23c.09.13.17.27.27.39.74.89,1.49,1.77,2.24,2.66,2.1,2.48,4.26,5.05,6.29,7.67l.5.66A12.36,12.36,0,0,0-23,292.47a14.51,14.51,0,0,1,2.4,3,2.65,2.65,0,0,0,.33.42l1.06,1.27c.64.75,1.28,1.5,1.89,2.26l2.78,3.48q1.41,1.78,2.83,3.55c.7.87,1.42,1.73,2.14,2.59C-9,309.66-8.5,310.3-8,311q1.56,1.89,3.11,3.8c1.67,2.05,3.34,4.1,5,6.14.59.71,1.18,1.4,1.78,2.09,1.33,1.56,2.7,3.16,3.91,4.86a.38.38,0,0,0,.23.1l.17.05h0l.05,0,.13-.22.28-.49C4.12,323.84,1.38,320.65-1.27,317.56Z"/><path class="cls-4" d="M280.41,130.52a11,11,0,0,0-7.78-8.05,5.56,5.56,0,0,0-.7-.19,20.13,20.13,0,0,0-3.71-.38c-4.05,0-8.24,1.37-10.93,4.51-.32.37-.64.74-.94,1.13a10.32,10.32,0,0,0-2.22,6.61,25.94,25.94,0,0,0,.31,3.82,7.71,7.71,0,0,0,2.37,4.83c1.66,1.5,3.16,3,5.35,3.7a17.56,17.56,0,0,0,6.91.72c3.9-.34,9-3.07,10.64-6.85A14.71,14.71,0,0,0,280.41,130.52Z"/><path class="cls-8" d="M271.18,127.61l-.29-.26a1,1,0,0,0-.4-.29,11.79,11.79,0,0,0-3.49-.51,12.81,12.81,0,0,0-1.62.1,8.7,8.7,0,0,0-3.8,1.34,5.6,5.6,0,0,0-2,2l-.09.12h0l0,.05s.06.07.07.08a.64.64,0,0,0,.14.06s0,0,0,0l.09,0a4.21,4.21,0,0,0,.55-.39,8.65,8.65,0,0,1,5.95-2.46l.46,0,.91,0a10.29,10.29,0,0,1,2.52.27.81.81,0,0,0,.29,0h.25a2.4,2.4,0,0,0,.44-.09s0,0,.05,0S271.19,127.62,271.18,127.61Z"/><path class="cls-4" d="M253.15,144.86c.07.41.14,1.51.55.91s.16-2.76.12-3.59c-.08-1.69-.27-3.37-.44-5.05-.52-5.11-.63-10.7,2.78-14.87a15.2,15.2,0,0,1,9.67-5.25,14.61,14.61,0,0,1,11.64,3.43,13.87,13.87,0,0,1,3.62,5,18.34,18.34,0,0,1,1.19,6.46,24.88,24.88,0,0,1-.3,4.38c-.25,2.18-.63,4.35-.85,6.54a15.2,15.2,0,0,0-.09,3.63c.92.44.8-.76.88-1.5s.11-1.56.18-2.34l.51-4.54a2.43,2.43,0,0,1,.34-.54,11.32,11.32,0,0,1,2.8-2.41c1.85-1,4.38-.7,5.05,1.48a7.37,7.37,0,0,1-.95,5.37,41.4,41.4,0,0,1-4.21,6.05,8.45,8.45,0,0,0-1.27,1.55.43.43,0,0,0,.41.62c.43,0,.61-.49.83-.77.45-.54.88-1.09,1.31-1.64.86-1.09,1.69-2.19,2.46-3.33a13.91,13.91,0,0,0,2.19-4.81c.59-2.72-1.32-7.43-4.83-5.75a33.85,33.85,0,0,0-3.74,2.27,1.6,1.6,0,0,1-.11-.58l.09-.75,0-.19c0-.24,0-.48.07-.71,0,0,.06-.58.05-.57a19,19,0,0,0-.29-5.47,17.4,17.4,0,0,0-1.76-4.52c-2.5-4.54-7.63-7-12.66-7.34-4.6-.29-8.95,1.84-12.2,5a11.91,11.91,0,0,0-3.28,5,14.44,14.44,0,0,0-.7,4.66c0,3.16.3,6.35.48,9.51A39.84,39.84,0,0,0,253.15,144.86Z"/><path class="cls-7" d="M293.87,158.74c-2.16-2-4.38-3.93-6.69-5.75l-6.4-4.61c-.06.4-.11.69-.14,1-.35,4.2-1,8.39-1.15,12.6a4.93,4.93,0,0,1-.27,1.07H256.17c-.41,0-.87.12-1.23-.31-.14-1.05-.37-2.14-.41-3.23-.08-2.24-.35-4.46-.38-6.71A21.7,21.7,0,0,0,254,150c-.21-1.58-2-.47-2.82.13-2.42,1.76-4.81,3.57-7.19,5.37-1.15.87-4.82,2.72-4,4.6a4.3,4.3,0,0,0,.24.48,15.61,15.61,0,0,0,2.88,2.75c2.82,2.56,5.7,5.05,8.46,7.68,1.78,1.71,3.54,3.44,5.34,5.13s3.51,3,5.11,4.6a14.92,14.92,0,0,0,2.66,2.15c1.62.3,2.67-.46,3.95-1.37s2.79-2,4.17-3c1.79-1.32,3.53-2.69,5.37-3.94,1.22-.84,2.42-1.71,3.61-2.59,4.1-3,8.08-6.25,12.17-9.3a3.58,3.58,0,0,0,1.38-1.5A3.74,3.74,0,0,0,293.87,158.74Z"/><path class="cls-4" d="M166.86,318.8c-.09.18-.15.28-.23.42.57.91,1.74,1.34,2.19,2.57-.94.92-2.06,1.68-3,2.62s-2,2-3.05,3c.35,2.95,1,5.81,1.52,8.69s1,5.9,1.5,8.86.92,5.78,1.38,8.7a33.85,33.85,0,0,1-5.89,4.07l-.82-.28c-.49-2-.74-4.1-1.12-6.13s-.68-4-1-6-.65-4.11-1.08-6.14c-.28-1.33-.36-2.69-.61-4a3.93,3.93,0,0,0-.53-1.79c-.36-.38-.62-.05-.93.23l-3.09,2.73c-.3.27-1.74,1.71-3,2.82-.46.41-1.44,1.55-2.12,1.15a3,3,0,0,1-.4-.33h0l-1.1-1.05-.08-.07a.16.16,0,0,1-.12-.05l-1.42-1.36-3.77-3.88L128,321.64c-.16-.16-.29-.36-.46-.57a6.57,6.57,0,0,1,.52-.59c1.26-1.16,2.52-2.32,3.79-3.46a30.68,30.68,0,0,1,3.71-3c.42-.27,1.22-.67,1.2-1.27,0-.82-.82-.27-1.14,0s-.85.71-1.28,1c-1.33,1.05-2.61,2.19-3.86,3.33l-1.84,1.7-1,.87c-.14.13-.83.58-.85.76-.21,1.81-.19,34.14,0,35.62a2.27,2.27,0,0,0,.31.4c1.64,1.48,3,3.18,4.61,4.73,2.21,2.19,4.21,4.61,6.46,6.77l.13.13a76.8,76.8,0,0,0,6.68,6.82,5.28,5.28,0,0,0,.51.37h1.22c.78-.6,1.57-1.18,2.33-1.81,1.13-.93,2.24-1.89,3.38-2.82,1.6-1.33,3.24-2.61,4.84-3.94,1-.82,2-1.65,2.89-2.56s2-1.38,2.85-2.27a36.93,36.93,0,0,1,3-2.4c1.21-1,2.39-2.09,3.58-3.15a5.11,5.11,0,0,0,.54-.73v-34A8.6,8.6,0,0,0,166.86,318.8Z"/><path class="cls-4" d="M157.17,324.73c-.21.39-.5.08-.59-.19a3.05,3.05,0,0,1,0-1c.07-2.58.46-5.17.71-7.73q.35-3.45.71-6.9c.14-1.4.28-2.79.44-4.18a2.54,2.54,0,0,1,.05-.73c.22-.48.57-.24.63.15a6.77,6.77,0,0,1-.18,1.9c-.51,3.91-.75,7.85-1,11.78-.13,1.81-.3,3.6-.47,5.39A5.3,5.3,0,0,1,157.17,324.73Z"/><path class="cls-4" d="M158,332.84c.15,0,.31.08.4.53q.8,4.41,1.58,8.83c.43,2.47.86,4.93,1.27,7.4.32,1.93.61,3.86.9,5.79.06.44-.52,1.2-.63.51-.41-2.47-.8-4.94-1.2-7.41-.45-2.77-.94-5.53-1.37-8.3-.33-2.18-.71-4.33-1.23-6.47C157.6,333.31,157.77,332.9,158,332.84Z"/><path class="cls-4" d="M162.25,325.16c-.14-.09-.17-.37-.06-.64.37-.9.79-1.78,1.17-2.67a52.81,52.81,0,0,0,2.2-5c.13-.43.3-.94.9-1,.36.49.1.94-.08,1.37-.61,1.39-1.25,2.76-1.88,4.14-.48,1.06-.95,2.11-1.44,3.15a1.64,1.64,0,0,1-.49.61A.28.28,0,0,1,162.25,325.16Z"/><path class="cls-4" d="M160.16,314.19c.22.1.12.78.07,1-.35,1.39-.64,2.88-1,4.27-.16.7-.33,1.32-.51,2a5.16,5.16,0,0,1-.25,1.1c-.13.25-.84.67-.69.06.59-2.49,1.19-5,1.78-7.47.06-.22.15-.85.39-1A.22.22,0,0,1,160.16,314.19Z"/><path class="cls-4" d="M159,325.54c.18,0,.31.13.11.38a6.45,6.45,0,0,1-.63.65q-1.62,1.47-3.26,2.91c-.23.2-1.18,1-1.16.23,0-.36.6-.85.84-1.08.45-.43.9-.86,1.38-1.26s.94-.79,1.43-1.16a6.89,6.89,0,0,1,.84-.61A.91.91,0,0,1,159,325.54Z"/><path class="cls-4" d="M147.61,303.23l.39.26c-.07.17-.09.38-.21.49-.7.65-1.42,1.29-2.16,1.9a5.26,5.26,0,0,1-.91.51c-.05-.19-.14-.35-.1-.4A17.24,17.24,0,0,1,147.61,303.23Z"/><path class="cls-4" d="M159,330.8c-.28,0-.67-.28-.38-.52.48-.41,1-.78,1.49-1.17.3-.23.61-.47.91-.68.15-.11.36-.3.54-.21,1,.44-1.23,1.67-1.52,1.89a4.38,4.38,0,0,1-.89.68A.38.38,0,0,1,159,330.8Z"/><path class="cls-4" d="M150.27,330a4.86,4.86,0,0,1-2.21-.07c-.06-.22-.13-.43-.2-.67a3.56,3.56,0,0,1,1.87-.17C150.13,329.25,150.38,329.39,150.27,330Z"/><path class="cls-4" d="M163.59,316.79c0,.27-.33.71-.58.75a.92.92,0,0,1-1.17-.69c-.31-1,1.52-1.32,1.74-.16A.31.31,0,0,1,163.59,316.79Z"/><path class="cls-4" d="M148.88,321a2,2,0,0,1,1.71.33c0,.14.06.31.1.5a3.3,3.3,0,0,1-1.88.14C148.63,321.4,148.63,321.4,148.88,321Z"/><path class="cls-4" d="M148.24,327.39c0-.34,0-.51-.06-.71.74-.44,1.37-.06,2.06.18,0,.17,0,.32.09.52A4.6,4.6,0,0,1,148.24,327.39Z"/><path class="cls-4" d="M157.33,331.64a.35.35,0,0,1,0,.2c-.17.55-.75.31-1.11.17a3.3,3.3,0,0,1-1.26-.69c-.62-.75,1.3-.26,1.64-.14S157.29,331.35,157.33,331.64Z"/><path class="cls-4" d="M162.31,326.52a.17.17,0,0,1,0,.13c-.22.37-.76.13-1.09,0a3.52,3.52,0,0,1-1.14-.64c-.52-.61,1.27,0,1.59.1S162.3,326.31,162.31,326.52Z"/><path class="cls-4" d="M150.64,318.44c.06.28.11.49.17.73a1.56,1.56,0,0,1-2.05-.39c.27-.19.44-.4.62-.41A9.38,9.38,0,0,1,150.64,318.44Z"/><path class="cls-4" d="M151,312.84l.32.5-.26.42c-1.34.06-1.39,0-1.68-.85Z"/><path class="cls-4" d="M151.74,304.85c0,.28.06.5.09.7a1.72,1.72,0,0,1-1.59.12c-.27-.39-.05-.6.22-.82Z"/><path class="cls-4" d="M152.1,302.52v.58l-1.32.07c-.36-.29-.36-.29-.2-.92A1.39,1.39,0,0,1,152.1,302.52Z"/><path class="cls-4" d="M153.46,334l-.09,0c-.3-.16-.14-1-.14-1.27a1.79,1.79,0,0,1,.09-.83c.4-.74.67.18.71.54a2.59,2.59,0,0,1-.07,1C153.89,333.62,153.71,334.07,153.46,334Z"/><path class="cls-4" d="M148.93,338.9c-.58,0-1.2.24-1.76-.29l.23-.59a1.13,1.13,0,0,1,1.45.33c0,.14,0,.37,0,.6Z"/><path class="cls-4" d="M149.81,332.74c.07.26.1.37.13.5-.61.45-1.25.15-1.88.19l-.28-.56C148.43,332.44,149.07,332.66,149.81,332.74Z"/><path class="cls-4" d="M147.53,335.76v-.4a2.48,2.48,0,0,1,2.21.17c-.15.19-.22.41-.34.44A2.56,2.56,0,0,1,147.53,335.76Z"/><path class="cls-4" d="M148.56,324.37c0-.13,0-.25,0-.44a2.26,2.26,0,0,1,1.95.18c-.1.2-.15.43-.24.45C149.7,324.64,149.09,324.84,148.56,324.37Z"/><path class="cls-4" d="M153.06,297.52a2.47,2.47,0,0,1-2.19,0l.31-.54A1.82,1.82,0,0,1,153.06,297.52Z"/><path class="cls-4" d="M152.27,300.25c-.48.53-.92.42-1.45.21,0-.18-.07-.39-.11-.59C151.58,299.48,151.58,299.48,152.27,300.25Z"/><path class="cls-4" d="M150.08,308.31c0-.23-.07-.34-.08-.46a1.16,1.16,0,0,1,0-.18c.27-.25.72-.19,1.66.24,0,.06,0,.13,0,.18a2.71,2.71,0,0,1-.29.35Z"/><path class="cls-4" d="M151.11,294.43l1.64-.09c.08.25.15.44.21.63a1.85,1.85,0,0,1-1.63.13Z"/><path class="cls-4" d="M150.84,315.81l.23.48a1.6,1.6,0,0,1-1.81,0l.06-.39A1.66,1.66,0,0,1,150.84,315.81Z"/><path class="cls-4" d="M151.43,310.75a2.45,2.45,0,0,1-1.58.14c0-.13-.11-.28-.16-.43a1.9,1.9,0,0,1,1.57-.15Z"/><path class="cls-8" d="M147.42,345.78a.49.49,0,0,0-.22-.26l-.2.12-.39.28v.8q0,.87,0,1.74c-.05,1.93-.11,3.85-.17,5.78l-.14,4.84c0,.82,0,1.65-.05,2.47l-.06,2.48a5.31,5.31,0,0,1-.05.68c0,.19,0,.39,0,.59-.08,1.59-.15,3.17-.2,4.75a.66.66,0,0,0,.17.37l.07.11a.26.26,0,0,0,.09.05l.42-.13,0-.35a4.17,4.17,0,0,0,.08-.7c0-.44,0-.89,0-1.4s0-1.15,0-1.71a6.68,6.68,0,0,1,.11-.87,7.52,7.52,0,0,0,.11-.94c0-1.22,0-2.44.06-3.66v-.49c0-1.37,0-2.74.07-4.11,0-.61.06-1.22.12-1.89s.09-1.16.1-1.75c.06-1.9.07-3.81.08-5.73v-.68A1.16,1.16,0,0,0,147.42,345.78Z"/><path class="cls-7" d="M139,315.5c.41,1.83.74,3.66,1.14,5.49.07.32.16,1.21.56,1.29a.45.45,0,0,0,.35-.13l-.1-1.46,0,.06a.48.48,0,0,0,0-.28v-.08c-.07-.45-.31-1.19-.34-1.38-.13-.59-.25-1.18-.37-1.77-.57-2.88-1.31-5.74-1.8-8.63-.12-.68-.44-2.3.68-2.38a1.49,1.49,0,0,1,.54.42c.14,1.36.24,2.76.46,4.15.16,1,.19,2,.39,3,.1.46.2,1.26.78,1.34a10,10,0,0,0,1.9-.33c.47,0,1.28-.05,1.48-.58a3.27,3.27,0,0,0-.07-1.39c-.08-.74-.14-1.49-.23-2.23-.32-2.67-.69-5.33-1-8-.17-1.4-.25-2.8-.41-4.2a2.26,2.26,0,0,0-2.83-2.19,1.76,1.76,0,0,0-1.35.86,3.51,3.51,0,0,0,0,1.76c.17,2,.77,4.15.44,6.11a2.94,2.94,0,0,0-1.77,1.78,6.62,6.62,0,0,0,.28,3.05C138.1,311.69,138.61,313.59,139,315.5Z"/><path class="cls-4" d="M144.51,317.53c.05.68.11,1.37.17,2.05.32,3.72.72,7.44,1.12,11.16a19.47,19.47,0,0,1,.41,3.12c0,1.08-.21,2.17-.3,3.24a10.08,10.08,0,0,1-.24,1.34l.67.66a.76.76,0,0,1,0-.15c.11-1.5.23-3,.35-4.51.1-1.33.34-2.69.39-4,.11-3.38.6-6.73.86-10.1.17-2.2.49-4.38.56-6.58.06-2,.28-3.9.53-5.83s.59-4.11.66-6.19a4.45,4.45,0,0,1,0-.73,71.38,71.38,0,0,0,.72-7.29c.07-1.61,3.09-.82,4.12-.79.32,0,1.38.17,1.54-.24s-.26-.39-.49-.41l-1.23-.1L152,292c-.85-.07-1.9-.36-1.94.75a16.76,16.76,0,0,1-.12,1.74c-.44,3.15-.85,6.3-1,9.48,0,.24,0,.49-.06.73-.19,1.7-.41,3.4-.57,5.1-.19,2.08-.32,4.15-.48,6.23a5.07,5.07,0,0,1,0,.55c-.43,2-.4,4.13-.66,6.19-.23,1.76-.36,3.53-.57,5.59a16.57,16.57,0,0,1-.47-1.83c-.17-1.27-.27-2.56-.42-3.83s-.31-2.66-.48-4c-.08-.66-.17-1.32-.25-2,0-.16-.07-1.21-.46-.72-.09.11,0,.38,0,.51C144.39,316.83,144.48,317.17,144.51,317.53Z"/><path class="cls-4" d="M141.1,317.9a11.81,11.81,0,0,1,.11,1.46c0,.18,0,.36,0,.55l.19,1.7a.81.81,0,0,0,0-.15c.12,1.1.24,2.2.35,3.3.21,2,.41,3.93.65,5.89a30.92,30.92,0,0,1,.52,5.08l.8.79c-.37-3.59-.75-7.17-1.15-10.76,0-.36-.06-.73-.1-1.09-.21-1.89-.43-3.77-.61-5.65,0-.43,0-2.86-.75-2.79-.2,0-.27.18-.29.39l.07.59C141,317.5,141.08,317.77,141.1,317.9Z"/><path class="cls-4" d="M160,311.78a4.84,4.84,0,0,1-.81-.36l-.35.47c.16.19.35.56.56.68l.14.05a.88.88,0,0,0,.42-.05l.1-.8Z"/><path class="cls-7" d="M181,292.9a5.93,5.93,0,0,0-6.92-3.35l-2.22.63c-2.06-1.63-4-3.08-6.72-3.24a6.55,6.55,0,0,0-5.23,2.23c-.75.79-2.17,2.28-1.94,3.47.09.54,1.46.24,1.48.56a7.68,7.68,0,0,1,.07,1.13c-.1,1.35-.13,2.76-.34,4.1s-.52,2.34.26,3.56a7.74,7.74,0,0,0,1.3,1.5,9.45,9.45,0,0,1,1.16.93c.37.46.07.94,0,1.45s-.3,1.29-.46,1.93-.31,1.35-.46,2h0l-.44,2.73h0a9.12,9.12,0,0,1,1.52.38c1.48.36,2.94.82,4.42,1.2a2.2,2.2,0,0,0,1.26.1c.26-.13.36-.55.47-.8.72-1.62,1.42-3.25,2.14-4.87.14-.32.34-.63.53-1a8.93,8.93,0,0,0,5-1,13,13,0,0,0,2.82-1.89,9.91,9.91,0,0,0,3-5.17A10.14,10.14,0,0,0,181,292.9Zm-18.35,5.86a6.38,6.38,0,0,1-.65-4.63,4,4,0,0,1,.61-1.6,3,3,0,0,1,1.88-1.47c.48-.09,1.84-.1,2,.54.34,1.19-.33,2.54-.64,3.68a18.84,18.84,0,0,1-1.41,4.09C163.8,300.53,163.1,299.57,162.6,298.76Zm8.23-4.52c-.22.64-.45,1.27-.66,1.91-.86,2.54-1.7,5.09-2.56,7.62-.32.92-.68,1.83-1,2.74-.46,1.17-.74,2.71-1.74,3.57a.75.75,0,0,1,0-.67c.34-1,.7-2.08,1.09-3.11,1.52-4,3-8.12,4.23-12.26.1-.32.11-.84.39-1.08a.39.39,0,0,1,.68.33A3.82,3.82,0,0,1,170.83,294.24Zm7.64,3.76a7.06,7.06,0,0,1-4.94,5.15c-.4.14-1.07.29-1.3-.2-.16-.34.08-.78.18-1.09.27-.81.52-1.62.78-2.43L174,297c.13-.39.26-.78.38-1.17a4.25,4.25,0,0,1,.36-1.11A1.91,1.91,0,0,1,176,294a2.21,2.21,0,0,1,2.52,1.88A5.61,5.61,0,0,1,178.47,298Z"/><path class="cls-4" d="M289.4,59c5.16-3.22,10.77-6,16-9.21,4.8-3,9.42-6.25,14.24-9.21,4.56-2.78,9.14-5.51,13.82-8.08l4-2.14c2.54-1.35,5-2.76,7.56-4.16,2.36-1.31,4.87-2.47,7.11-4a27.37,27.37,0,0,1,2.33-1.52A4.32,4.32,0,0,1,355.8,20c1.47,0-1.26,2.21-1.56,2.42a49.58,49.58,0,0,1-4.35,2.4c-4.7,2.65-9.43,5.22-14.13,7.86-4.4,2.47-8.75,5-13.13,7.5-5.48,3.14-10.74,6.6-16.14,9.88-2.87,1.75-5.84,3.32-8.67,5.14-1.74,1.11-3.52,2.16-5.29,3.21-4.81,2.86-9.57,5.76-14.45,8.5s-9.89,5.37-14.73,8.26c-3,1.77-6,3.38-9.05,5.09-3.22,1.82-6.32,3.79-9.58,5.53q-5.22,2.78-10.36,5.67-2.93,1.65-5.84,3.35c-2.92,1.7-5.68,3.63-8.56,5.39-.4.24-1.79,1.49-2.12.7s1.57-1.33,2-1.61c1.07-.68,2-1.53,3.17-2.11,1.5-.77,2.83-1.85,4.3-2.67,4.42-2.45,8.5-5.47,13-7.75,4.74-2.38,9.37-5,14-7.6,1.32-.74,2.63-1.48,4-2.2,2.47-1.34,4.83-2.86,7.27-4.25,5.27-3,10.87-5.8,16.12-9C284.26,62.17,286.83,60.56,289.4,59Z"/><path class="cls-4" d="M74.23,184.09a.4.4,0,0,1-.31,0c-.58-.33.14-1,.45-1.17,2.22-1.38,4.49-2.67,6.61-4.21a27.58,27.58,0,0,1,3.2-1.78c1.93-1,3.88-2,5.82-3.08,2.91-1.55,5.66-3.39,8.65-4.81,1.15-.55,2.18-1.34,3.29-2,1.36-.81,2.74-1.6,4.12-2.38,1.71-1,3.48-1.81,5.13-2.86,1.35-.86,2.84-1.47,4.24-2.26s2.95-1.77,4.44-2.62c2.06-1.19,4.27-2.07,6.3-3.33,2.24-1.38,4.46-2.81,6.74-4.13a51.18,51.18,0,0,0,4.66-2.54,46.76,46.76,0,0,1,5.42-3c2.79-1.52,5.53-3.11,8.37-4.53.17-.08.34-.15.49-.24,2.41-1.46,4.86-2.84,7.2-4.4,1.88-1.25,4-2,5.86-3.34.66-.45,1.34-.85,2-1.28a10.89,10.89,0,0,1,1.09-.66c2.1-1,4-2.36,6-3.56,1.77-1.07,3.43-2.32,5.31-3.23.87-.42,1.63-1.07,2.46-1.58,1.12-.69,2.25-1.36,3.38-2a12.79,12.79,0,0,1,1.71-1c.31-.12,1.41-.45,1.62-.09.37.63-1.46,1.42-1.8,1.61a24.38,24.38,0,0,0-3.11,1.93,26.47,26.47,0,0,1-3.11,1.92c-2.09,1.26-4.13,2.62-6.28,3.77-1.78,1-3.41,2.15-5.19,3.1-3.73,2-7.47,4.13-11,6.47-2.19,1.46-4.61,2.52-6.76,4A18.57,18.57,0,0,1,149,142c-1.2.61-2.41,1.19-3.6,1.8s-2.18,1.09-3.23,1.7c-2.22,1.28-4.42,2.59-6.63,3.9q-8.06,4.79-16.25,9.32c-1.58.87-3.17,1.73-4.78,2.55-2.2,1.11-4.35,2.22-6.51,3.42-2.84,1.56-5.59,3.26-8.35,5-1.46.89-3,1.61-4.53,2.41-.43.23-.87.45-1.29.7-3,1.88-6.19,3.44-9.3,5.13-2.36,1.29-4.61,2.77-6.91,4.16-.84.51-1.58,1.15-2.45,1.59A4.37,4.37,0,0,1,74.23,184.09Z"/><path class="cls-4" d="M-47.49,253.49a.68.68,0,0,1-.28-.07c.19-1,3-2,3.89-2.48,1.42-.73,2.85-1.45,4.22-2.27,3.1-1.86,6.16-3.81,9.38-5.46,6.4-3.27,12.38-7.25,18.62-10.8,1.59-.9,3.24-1.68,4.86-2.52s3.12-1.86,4.71-2.74c6.19-3.43,12.06-7.41,18.28-10.78,2.12-1.16,4.24-2.32,6.31-3.56,1.84-1.11,3.69-2.19,5.54-3.29,1.37-.81,2.6-2,4.15-2.44.92-.28,2.28-.11.83.76-2.46,1.48-4.89,3-7.38,4.44-2.22,1.28-4.51,2.44-6.77,3.67C12,219.72,5.46,224.18-1.44,228c-2,1.11-4.05,2.16-6.05,3.27-4.14,2.31-8.25,4.66-12.37,7-2.36,1.35-4.71,2.69-7.06,4.05-2.2,1.27-4.4,2.55-6.61,3.81-2.45,1.4-4.85,2.9-7.31,4.29-1.22.68-2.45,1.35-3.71,1.95-.63.3-1.26.59-1.9.86A2.45,2.45,0,0,1-47.49,253.49Z"/><path class="cls-6" d="M88.07,157.16c-.24,0-.42-.14-.47-.5s.11-.42.36-.62a15.49,15.49,0,0,1,2.23-1.23c1.52-.84,3-1.66,4.62-2.39a34.86,34.86,0,0,0,4-2.27,38.8,38.8,0,0,1,4.66-2.53c2.61-1.21,5.19-2.47,7.68-3.9q1.37-.76,2.7-1.56l2.36-1.43c.89-.52,1.8-1,2.69-1.55,1.09-.67,2.25-1.21,3.39-1.8,3.61-1.87,7.1-4,10.78-5.75,2.62-1.25,5-2.94,7.62-4.17,3.2-1.51,6.2-3.47,9.3-5.16,1.13-.61,2.3-1.15,3.45-1.73,2-1,3.92-2,5.88-3,.49-.24,1.2-.81,1.77-.52s.14.88-.34,1.15c-.84.49-1.7,1-2.58,1.39-2.24,1.1-4.52,2.14-6.74,3.3-2.55,1.33-5,2.77-7.56,4.15-1.24.67-2.5,1.28-3.74,1.95-.91.49-1.8,1-2.7,1.55s-1.57.95-2.39,1.37c-1.9,1-3.84,1.89-5.72,2.91-3.43,1.86-6.84,3.77-10.25,5.68-2.13,1.19-4.29,2.35-6.34,3.67-2.22,1.43-4.68,2.37-6.91,3.76-.67.42-1.47.62-2.17,1-2.45,1.28-4.87,2.63-7.32,3.92-2.08,1.09-4.2,1.88-6.21,3.11C89.77,156.17,88.7,157.15,88.07,157.16Z"/><path class="cls-6" d="M157.6,99.52c1.22.15,0,1-.54,1.22-2.42,1.13-4.81,2.36-7.28,3.39s-4.59,2.22-6.91,3.31c-2,.94-4,2-6,2.88-4.06,1.78-8,3.86-12,5.71-1.52.69-3.09,1.27-4.62,1.94s-3,1.5-4.45,2.23c-2.2,1.07-4.27,2.35-6.54,3.3-1.4.58-2.74,1.35-4.12,2-1.1.52-2.23,1-3.33,1.53-1.92.92-3.84,1.87-5.75,2.82-.71.35-1.4.75-2.1,1.14-.43.23-.84.5-1.28.71-.67.32-1.3.72-2,1-.3.13-1.45.59-1.6.17s1.67-1.29,2-1.44a51.07,51.07,0,0,0,5.19-2.7c1.17-.63,2.46-1,3.64-1.66,2.08-1.09,4.25-2,6.31-3.12,1.35-.73,2.7-1.43,4.08-2.1,2.75-1.34,5.48-2.69,8.18-4.11,3.53-1.85,7.32-3.12,10.84-5,.65-.34,1.31-.64,2-1,1.6-.77,3.18-1.56,4.79-2.3,3.14-1.47,6.36-2.81,9.44-4.41,3.27-1.69,6.64-3.09,9.92-4.79a6.56,6.56,0,0,1,1.59-.79A1.46,1.46,0,0,1,157.6,99.52Z"/><path class="cls-7" d="M223.51,215.55a1.19,1.19,0,0,1,.89-.06,3.67,3.67,0,0,1,1,.35c.35.18.7.35,1,.55.59.36.69,1-.16.88-.64-.06-1.22-.41-1.85-.47a14.47,14.47,0,0,0-.18,2.76,7.81,7.81,0,0,1-.12,1.36c0,.25-.21.65-.53.66-.49,0-.45-.82-.46-1.15-.05-1.27,0-2.54,0-3.82C223.18,216.07,223.26,215.72,223.51,215.55Z"/><path class="cls-4" d="M219.8,194.34l.6-.36a1.07,1.07,0,0,1,.39.11c2.14,1.91,4.25,3.86,6.38,5.78,2.63,2.38,5.08,5,7.9,7.12.68.52,1.27,1.16,1.91,1.73,1.83,1.62,3.68,3.22,5.49,4.86s3.88,3.55,5.79,5.36c.84.8,3,2.36,1.41,3.57-1.21.91-2.27,1.64-3.26,2.45-2.18,1.78-4.46,3.42-6.63,5.22-1.78,1.49-3.7,2.81-5.56,4.2-1.22.92-2.4,1.91-3.68,2.73a35.12,35.12,0,0,0-2.85,2.28c-.91.71-1.9,1.33-2.85,2a4.83,4.83,0,0,0-.74.54,30.88,30.88,0,0,1-4.69,3.52c-.86.58-1.68,1.22-2.52,1.83-1.71,1.27-3.43,2.53-5.14,3.81-1.52,1.14-3,2.29-4.53,3.44a7.77,7.77,0,0,1-.74.54c-3,1.82-5.69,4.22-8.69,6.11-1.66,1.05-3.14,2.32-4.69,3.51s-3,2.33-4.47,3.5a7.93,7.93,0,0,1-.71.59,35.76,35.76,0,0,0-4.56,3.4,3.48,3.48,0,0,1-1,.49c-.06,0-.19-.11-.36-.21a26.64,26.64,0,0,1,4.05-3.4,26,26,0,0,0,3.5-2.66,27,27,0,0,1,2.29-1.83c2.24-1.69,4.54-3.32,6.75-5s4.78-3.42,7.22-5a6.4,6.4,0,0,0,1.15-.91,10,10,0,0,1,1.74-1.31c1.45-1,2.83-2.14,4.21-3.25a13.12,13.12,0,0,1,1.46-1.08,17.89,17.89,0,0,0,3-2.15,19.69,19.69,0,0,1,2.8-2.05,24.94,24.94,0,0,0,2.21-1.61c5.19-4.15,10.6-8.07,16-12,2.55-1.9,5-3.94,7.48-5.91a23.78,23.78,0,0,1,1.93-1.41,4.59,4.59,0,0,0,1.5-1.35,28.86,28.86,0,0,0-2.89-2.86c-.17-.17-.41-.28-.57-.46-2.25-2.52-5-4.47-7.5-6.72-.27-.25-.55-.49-.81-.74-1.86-1.88-3.93-3.5-5.91-5.23-.42-.36-.8-.76-1.2-1.14s-.94-1-1.46-1.39c-1.85-1.53-3.53-3.22-5.24-4.88-.88-.85-1.82-1.64-2.72-2.47C220.59,195.2,220.27,194.83,219.8,194.34Z"/><path class="cls-4" d="M209.46,184.73a3.28,3.28,0,0,1-2-1.16c-2.61-2.23-5.05-4.64-7.54-7s-5.11-4.37-7.58-6.65c-3.11-2.85-6.23-5.69-9.34-8.55-2.07-1.91-4.11-3.84-6.19-5.74-.85-.79-1.75-1.52-2.64-2.27-1.26-1.05-2.54-2.09-3.81-3.14-.32-.28-.61-.6-1-.95a4.54,4.54,0,0,1-.73.66c-4.08,2.23-7.88,4.9-11.77,7.42-2.41,1.57-4.92,3-7.39,4.44-.74.44-1.46.9-2.2,1.32-1.75,1-3.52,2-5.27,3-.74.42-1.5.83-2.21,1.3-1.94,1.28-4,2.32-6,3.56s-3.8,2.45-5.76,3.56c-2.76,1.57-5.35,3.44-8.19,4.87a28.84,28.84,0,0,0-3.59,2.21c-1.86,1.3-3.83,2.4-5.77,3.57-1.25.76-2.47,1.58-3.73,2.33-.82.49-1.56,1.11-2.4,1.57a4.14,4.14,0,0,1-1.33.54c-.06,0-1.23,0-1.08-.22.49-.69,1.87-1.19,2.63-1.63l2.85-1.65c.53-.3,1-.62,1.57-.94,1.63-1,3.24-2,4.88-2.91a20.52,20.52,0,0,0,1.82-1.21c1.14-.82,2.34-1.56,3.54-2.28,2.41-1.45,4.83-2.88,7.24-4.31.89-.53,1.79-1.05,2.66-1.6,2.84-1.81,5.75-3.5,8.62-5.24,1.61-1,3.28-1.88,4.86-2.94.55-.37,1.16-.67,1.75-1,2.73-1.52,5.48-3,8.07-4.73,2.18-1.46,4.33-3,6.57-4.35,1-.6,2-1.18,3-1.78l6-3.62c1.7-1,2.15-.46,3.53.77s2.61,2.33,4,3.43c2.33,1.89,4.36,4.1,6.63,6,.93.8,1.89,1.56,2.81,2.37,1.18,1.06,2.32,2.15,3.49,3.23,1.77,1.64,3.45,3.4,5.24,5a61.16,61.16,0,0,1,5,4.63,41.49,41.49,0,0,0,3.79,3.45c1.91,1.63,3.84,3.21,5.76,4.83A2.57,2.57,0,0,1,209.46,184.73Z"/><path class="cls-4" d="M113.08,204.87c.24-.61,1.48.44,1.79.71,2.17,1.83,4.06,3.94,6.1,5.9s4,3.66,5.87,5.59c3.8,3.85,7.86,7.43,11.7,11.25,5.06,5,10.06,10.13,15.06,15.23,4.65,4.75,9.72,9.06,14.37,13.83,3.39,3.49,7.2,6.74,10.57,10.33.73.78,1.51,1.5,2.23,2.29.27.3.78.65.91,1.05.64,2.09-2.11-.34-2.49-.7-1.38-1.27-2.5-2.8-3.75-4.2-1.79-2-3.8-3.72-5.67-5.63-5.14-5.22-10.4-10.32-15.62-15.46Q147,238,140,230.94c-5.31-5.36-10.78-10.57-16.32-15.7-1.38-1.29-2.75-2.57-4-4a40.53,40.53,0,0,0-5.18-4.62c-.37-.27-1.41-1-1.43-1.47A.8.8,0,0,1,113.08,204.87Z"/><path class="cls-4" d="M187.69,186.69a3.6,3.6,0,0,1,3-1.72,4.68,4.68,0,0,1,3.12,1.05,4,4,0,0,1,.35,5.5c-1.8,2-6.14,1.28-6.86-1.46A4.44,4.44,0,0,1,187.69,186.69Zm2.62-1-.34.07a3.34,3.34,0,0,0-2,3.38c.15,2.48,3.34,3.64,5.3,2.25a3,3,0,0,0,.16-4.59A3.81,3.81,0,0,0,190.31,185.66Z"/><path class="cls-4" d="M203.05,195a3.47,3.47,0,0,1,2.19,1.6,4,4,0,0,1-.25,4.08,3.24,3.24,0,0,1-2.12,1.29c-2.67.46-5.43-2.05-4.39-4.81A3.49,3.49,0,0,1,201,195,4,4,0,0,1,203.05,195Zm1.62,2.12a3.35,3.35,0,0,0-4-1.44,2.7,2.7,0,0,0-1.23,4c1.36,2,4.48,2.54,5.43-.19A2.78,2.78,0,0,0,204.67,197.08Z"/><path class="cls-9" d="M189.09,240.76l.33.44c-.53,1.14-.91,1.45-2.46,2-.09-.26-.17-.52-.25-.76A4.7,4.7,0,0,1,189.09,240.76Z"/><path class="cls-9" d="M175.29,237.58c-.13-.61-.2-.93-.28-1.33l2-1.32.6.47C177.2,236.43,176.26,236.78,175.29,237.58Z"/><path class="cls-9" d="M193.71,240.49l.48.56a4.33,4.33,0,0,1-2,1.81.6.6,0,0,1-.91-.4C191.77,241.51,192.78,241.17,193.71,240.49Z"/><path class="cls-9" d="M183.6,230.45l.31.61a3,3,0,0,1-2.36,1.57c-.36-.27-.37-.54-.14-1A6.52,6.52,0,0,1,183.6,230.45Z"/><path class="cls-9" d="M170.83,239.47l.78.68a3.36,3.36,0,0,1-2.26,1.72l-.44-.53C169.26,240.4,170.24,240.28,170.83,239.47Z"/><path class="cls-9" d="M192.35,207.56c-.55-.33-.5-.73-.31-1.26.46-.3,1-.65,1.52-1,.48.37.48.37.52.89A3.13,3.13,0,0,1,192.35,207.56Z"/><path class="cls-9" d="M187.31,228.18l.27.51a6.61,6.61,0,0,1-2.5,1.59c-.06-.33-.11-.61-.18-.95C185.64,228.77,186.26,228.07,187.31,228.18Z"/><path class="cls-9" d="M207,232l-.68-.4a3.34,3.34,0,0,1,2.1-1.82c.49.12.51.4.4.88Z"/><path class="cls-9" d="M191.61,224.46l1.19-1c.51-.15.87-.19,1.2.11-.14,1.16-1.42,1.21-1.8,2C191.43,225.42,191.49,225,191.61,224.46Z"/><path class="cls-9" d="M211.84,227.11l.56.34c0,.18,0,.32,0,.39a5.49,5.49,0,0,1-1.82,1.46L210,229C210.14,227.9,211.05,227.6,211.84,227.11Z"/><path class="cls-9" d="M197.11,239a4.17,4.17,0,0,1-2,1.43l-.42-.37c.43-1.15.86-1.45,2.16-1.51Q196.93,238.75,197.11,239Z"/><path class="cls-9" d="M158.94,228.07c-.21-.4-.31-.59-.42-.78.5-.77,1.38-.83,1.88-1.52l.78.76A5,5,0,0,1,158.94,228.07Z"/><path class="cls-9" d="M187.51,209.83l.38.68A3,3,0,0,1,186.4,212c-.59,0-.7-.35-.67-.83C186,210.47,186.63,210.14,187.51,209.83Z"/><path class="cls-9" d="M153.83,217l-.35-.32c0-.79.66-1.07,1.19-1.44A1.17,1.17,0,0,1,156,215C155.82,215.89,155.82,215.89,153.83,217Z"/><path class="cls-9" d="M205.42,229.81c-.63.32-1.08,1.07-2,1.14l-.38-.55a8.88,8.88,0,0,1,1.85-1.43C205.45,229,205.56,229.28,205.42,229.81Z"/><path class="cls-9" d="M192.22,238.28l.38.4c.06.7-.7,1.31-2,1.81l-.35-.62C190.56,239,191.42,238.86,192.22,238.28Z"/><path class="cls-9" d="M174.05,237.16c.23.15.29.17.32.22s.14.19.26.36c-.31.85-1.13,1.14-1.85,1.61l-.68-.32C172.33,237.89,173.38,237.76,174.05,237.16Z"/><path class="cls-9" d="M168.79,220.64l-.12-.7a3.81,3.81,0,0,1,1.85-1.4l.46.32C170.76,219.94,170.39,220.24,168.79,220.64Z"/><path class="cls-9" d="M205.48,231.85l.5.48c-.47,1-1.27,1.27-2,1.8l-.52-.56A3.1,3.1,0,0,1,205.48,231.85Z"/><path class="cls-9" d="M180,232.86l.57.51a5.36,5.36,0,0,1-2.09,1.75l-.55-.61C178.35,233.54,179.17,233.28,180,232.86Z"/><path class="cls-9" d="M201.44,215.12c-.53.61-1,1.3-1.88,1.33-.39-.34-.29-.63-.17-1l1.15-.89C201.16,214.66,201.16,214.66,201.44,215.12Z"/><path class="cls-9" d="M159.4,213a7.86,7.86,0,0,1-2.1,1.5c-.33-.41-.33-.41-.28-1l1.6-1.18Z"/><path class="cls-9" d="M172.19,218.15c-.05-.28-.1-.55-.15-.89l1-.59,1-.58.62.47c-.41,1-1.45,1.05-2,1.75Z"/><path class="cls-9" d="M188.76,227.85l-.43-.76c.32-.85,1-1.14,1.78-1.58l.63.55c-.06.18-.07.33-.14.38C190,226.89,189.46,227.31,188.76,227.85Z"/><path class="cls-9" d="M190.28,243.05l.36.31c0,.11,0,.25,0,.33a6.08,6.08,0,0,1-1.69,1.47c-.48-.16-.66-.36-.59-.86A7,7,0,0,1,190.28,243.05Z"/><path class="cls-9" d="M189.05,210.13l-.4-.79a3.15,3.15,0,0,1,1.59-1.41c.44.08.59.3.49.83A3.91,3.91,0,0,1,189.05,210.13Z"/><path class="cls-9" d="M196.43,219.12l-.42-.93a3.2,3.2,0,0,1,1.82-1.38l.53.33c0,.18,0,.33-.06.38C197.76,218,197.2,218.46,196.43,219.12Z"/><path class="cls-9" d="M187.14,245.41l.64.5c-.43.85-1.25,1-1.91,1.54l-.63-.5C185.38,246.33,185.66,246.11,187.14,245.41Z"/><path class="cls-9" d="M167.11,221.24l.54.65a3.87,3.87,0,0,1-2,1.43c-.38-.48-.38-.48-.13-1.21Z"/><path class="cls-9" d="M199.83,218.53l.55.66a4.81,4.81,0,0,1-2,1.64l-.52-.48C198.19,219.39,199,219.09,199.83,218.53Z"/><path class="cls-9" d="M193.06,220.6a2.77,2.77,0,0,1,1.73-1.57l.56.53c-.47.89-1.25,1.18-2,1.66Z"/><path class="cls-9" d="M182.36,248.75a7.31,7.31,0,0,1,1.74-1.11c.5.12.56.37.44.82a4.22,4.22,0,0,1-1.66,1.13,2.79,2.79,0,0,1-.44-.32C182.37,249.2,182.4,249.05,182.36,248.75Z"/><path class="cls-9" d="M181.61,249.29l.48.83c-.72.51-1.13,1.34-2.08,1.26-.42-.36-.35-.74-.06-1A16.94,16.94,0,0,1,181.61,249.29Z"/><path class="cls-9" d="M180,211.87l.37.43c-.07.25-.06.4-.13.46-.51.41-1,.79-1.57,1.2l-.74-.29C178.21,212.6,179,212.19,180,211.87Z"/><path class="cls-9" d="M175.48,216.08l-.43-.76a4.18,4.18,0,0,1,1.58-1.13.68.68,0,0,1,.61.86A3.12,3.12,0,0,1,175.48,216.08Z"/><path class="cls-9" d="M205.65,214.59c.41.1.65.24.61.76a7.27,7.27,0,0,1-1.71,1.21c-.21-.29-.35-.46-.5-.66A2.92,2.92,0,0,1,205.65,214.59Z"/><path class="cls-9" d="M185.26,209.48l-.63-.29c.09-.29.17-.57.27-.91l1.48-.81c.23.22.43.4.68.65Z"/><path class="cls-9" d="M191.77,221.27l.53.7a7.42,7.42,0,0,1-2,1.33c-.41-.46-.41-.46-.23-1.13Z"/><path class="cls-9" d="M213.84,227c-.58-.22-.57-.51-.48-.9a3.16,3.16,0,0,1,1.89-1.19l.32.51C215.17,226.18,214.39,226.45,213.84,227Z"/><path class="cls-9" d="M166.49,225.76a3.87,3.87,0,0,1-2,1.37l-.46-.34c.21-1,1-1.21,1.84-1.51Z"/><path class="cls-9" d="M203.29,234.14a3.22,3.22,0,0,1-1.94,1.8,1.28,1.28,0,0,1-.36-.2,1.56,1.56,0,0,1-.19-.37A2.34,2.34,0,0,1,203.29,234.14Z"/><path class="cls-9" d="M158,230.89c.35-1,1.12-1.23,1.84-1.59l.59.35c0,.17,0,.31-.07.38a3.23,3.23,0,0,1-.64.64,10.73,10.73,0,0,1-1.13.55Z"/><path class="cls-9" d="M200.33,233.47c-.14-.46-.22-.72-.28-.94,1.32-1.16,1.51-1.22,2.41-.81A5.13,5.13,0,0,1,200.33,233.47Z"/><path class="cls-9" d="M174.84,218.72c.23.13.36.17.43.26a1.12,1.12,0,0,1,.18.38,3.65,3.65,0,0,1-1.75,1.42c-.56-.05-.58-.39-.49-.82Z"/><path class="cls-9" d="M168.52,205.78l.28.47a3.38,3.38,0,0,1-2.07,1.34c-.1-.21-.17-.37-.23-.51A2.23,2.23,0,0,1,168.52,205.78Z"/><path class="cls-9" d="M199.28,236.19l.7.36c0,.2,0,.36-.08.42a11.35,11.35,0,0,1-1.22,1.08,2.08,2.08,0,0,1-.75.14c-.07-.27-.13-.48-.2-.76Z"/><path class="cls-9" d="M195.14,223c-.36-.31-.34-.6-.17-1,.57-.4,1.12-1.11,2.11-.61C196.67,222.13,196.67,222.13,195.14,223Z"/><path class="cls-9" d="M176.57,218.58c-.14-.25-.22-.4-.31-.58a3,3,0,0,1,2-1.46l.55.57A7.74,7.74,0,0,1,176.57,218.58Z"/><path class="cls-9" d="M180.23,248a2.89,2.89,0,0,1-2.09,1.44c-.06-.3-.11-.57-.18-.91l1.58-.95Z"/><path class="cls-9" d="M168.85,222.93l.74.16c.08.59-.77,1.24-2.12,1.71-.05-.22-.1-.44-.17-.71Z"/><path class="cls-9" d="M163.84,223.54l.5.55c-.05.18-.05.33-.12.39l-1.38,1c-.58,0-.75-.26-.69-.73A3.06,3.06,0,0,1,163.84,223.54Z"/><path class="cls-9" d="M182.54,245.5c.11.21.18.37.26.51-.21.89-1.05,1-1.6,1.47l-.67-.43A3,3,0,0,1,182.54,245.5Z"/><path class="cls-9" d="M186.09,243.82a3.42,3.42,0,0,1-1.93,1.51c-.41-.2-.38-.49-.26-.87a3.47,3.47,0,0,1,1.61-1.11Z"/><path class="cls-9" d="M196.83,236c-.07-.35-.11-.57-.17-.85.76-.47,1.28-1.36,2.38-1C198.72,235.07,198.52,235.25,196.83,236Z"/><path class="cls-9" d="M195.68,236.8,194,238.17l-.57-.3a3.34,3.34,0,0,1,2.13-1.86Z"/><path class="cls-9" d="M181.92,214.62a3.48,3.48,0,0,1-1.85,1.61c-.39-.16-.32-.47-.31-.8a2.93,2.93,0,0,1,1.69-1.17Z"/><path class="cls-9" d="M183,209.62l.72.72a3.18,3.18,0,0,1-1.89,1.15c-.39-.28-.3-.63-.14-1.08Z"/><path class="cls-9" d="M162.17,210.67a4.19,4.19,0,0,1-1.71,1.26c-.45-.11-.5-.38-.41-.8l1.2-.89C161.61,210.23,161.93,210.1,162.17,210.67Z"/><path class="cls-9" d="M150.72,218.09l1.62-1,.54.55A3.29,3.29,0,0,1,151,219C150.62,218.81,150.48,218.59,150.72,218.09Z"/><path class="cls-9" d="M192.49,204.16a2.66,2.66,0,0,1-1.46,1.26c-.45-.28-.45-.28-.54-.77a1.05,1.05,0,0,1,.15-.32c.25-.25.53-.47.86-.77Z"/><path class="cls-9" d="M170.48,222.73c-.11-.23-.19-.39-.28-.56a4.46,4.46,0,0,1,1.8-1.29,3.54,3.54,0,0,1,.48.23c.08.06.1.2.18.35A7.65,7.65,0,0,1,170.48,222.73Z"/><path class="cls-9" d="M216.84,224.57l-.29-.42c.24-.88,1-1.25,1.73-1.59l.49.34a1.3,1.3,0,0,1-.05.38A3.37,3.37,0,0,1,216.84,224.57Z"/><path class="cls-9" d="M189.29,224.34c-.59.29-1,1-1.92.92-.05-.22-.1-.44-.14-.6a2.84,2.84,0,0,1,1.42-1.16C189.06,223.64,189.37,223.79,189.29,224.34Z"/><path class="cls-9" d="M193.67,203.51a2.68,2.68,0,0,1-.33-.22,2.17,2.17,0,0,1-.2-.35c.07-.81.83-.92,1.41-1.37l.66.64A3.2,3.2,0,0,1,193.67,203.51Z"/><path class="cls-9" d="M187.72,207.09c0-.22.08-.45.13-.76l1.21-.86c.48.13.69.37.63.8C188.61,207.24,188.58,207.26,187.72,207.09Z"/><path class="cls-9" d="M166.92,204.57l-.4-.42c0-.73.56-1,1-1.21a.83.83,0,0,1,1.08.13A3.74,3.74,0,0,1,166.92,204.57Z"/><path class="cls-9" d="M163.27,210.11c0-.41-.05-.64-.06-.81a2.16,2.16,0,0,1,1.7-1.18c.12.13.27.29.42.47A3.69,3.69,0,0,1,163.27,210.11Z"/><path class="cls-9" d="M172.83,202.47a3.43,3.43,0,0,1,1.75-1.09l.4.42a3.73,3.73,0,0,1-1.95,1.38Z"/><path class="cls-9" d="M170.89,200.68l.33.39a.84.84,0,0,1-.07.33,6.24,6.24,0,0,1-1.28,1.06c-.52,0-.71-.15-.75-.61A3.21,3.21,0,0,1,170.89,200.68Z"/><path class="cls-9" d="M184.46,212.33l.36.29c0,.42-.43.75-1.87,1.53-.39-.31-.2-.65,0-.93C183.26,212.76,183.28,212.78,184.46,212.33Z"/><path class="cls-9" d="M214.29,222.46c.12.12.24.24.35.37a4.09,4.09,0,0,1-2,1.49l-.14-.65A2.66,2.66,0,0,1,214.29,222.46Z"/><path class="cls-9" d="M209,213.26a3.44,3.44,0,0,1-1.51,1.24c-.46-.11-.45-.41-.39-.87l1-.89c.19,0,.27,0,.31,0Z"/><path class="cls-9" d="M147.58,218.23l-.54-.72c.38-.73,1.06-.81,1.65-1.07l.48.23c0,.14,0,.31,0,.36C148.67,217.4,148.2,217.76,147.58,218.23Z"/><path class="cls-9" d="M208.13,226.66l.42.49a3.62,3.62,0,0,1-1.85,1.41c-.47-.19-.34-.48-.21-.91Z"/><path class="cls-9" d="M186.14,225.32l.54.42c-.06.16-.07.31-.14.38-.41.36-.83.7-1.33,1.11-.22-.28-.38-.5-.52-.67A2.16,2.16,0,0,1,186.14,225.32Z"/><path class="cls-9" d="M209.64,225.48l1.47-1,.69.53-1.69,1.37C209.63,226.11,209.63,226.11,209.64,225.48Z"/><path class="cls-9" d="M148.28,220.84c-.55-.2-.54-.48-.46-.87a3.44,3.44,0,0,1,1.66-.86l.47.39C149.59,220.23,148.86,220.42,148.28,220.84Z"/><path class="cls-9" d="M163.61,206.64l-.45-.67c.62-.73,1.24-1.25,2.29-.83C165.14,206,164.41,206.17,163.61,206.64Z"/><path class="cls-9" d="M203.2,216.35l.57.45a3.26,3.26,0,0,1-1.67,1.41c-.12-.2-.2-.36-.29-.51A1.78,1.78,0,0,1,203.2,216.35Z"/><path class="cls-9" d="M157.8,210.25c0-.19,0-.37,0-.59l1.24-.87.68.56a2.46,2.46,0,0,1-1.42,1.15Z"/><path class="cls-9" d="M202.1,214.67c-.13-.3-.22-.49-.28-.65a2.42,2.42,0,0,1,1.44-1.15l.48.42C203.52,214.18,202.79,214.31,202.1,214.67Z"/><path class="cls-9" d="M157.23,210.68c.06.15.12.3.18.47a1.48,1.48,0,0,1-.33.43c-.39.26-.8.48-1.3.78l-.34-.82A2.56,2.56,0,0,1,157.23,210.68Z"/><path class="cls-9" d="M162.55,227.38l.67.58a3.11,3.11,0,0,1-1.59,1.28c-.11-.26-.2-.51-.31-.8Z"/><path class="cls-9" d="M174,199.25c-.52.61-1,1.29-1.91.87-.1-.86.53-1.07,1.06-1.31C173.39,198.67,173.7,198.72,174,199.25Z"/><path class="cls-9" d="M176,200.1l1.3-.63.31.47a2.44,2.44,0,0,1-1.53,1.31C175.62,200.92,175.71,200.58,176,200.1Z"/><path class="cls-9" d="M195.34,204.2l1.1-.75.66.74a1.83,1.83,0,0,1-1.2,1.06C195.46,205.12,195.49,204.73,195.34,204.2Z"/><path class="cls-9" d="M171.24,203.71l.44.58a2.85,2.85,0,0,1-1.72,1.09c-.06-.3-.12-.58-.16-.77A2,2,0,0,1,171.24,203.71Z"/><path class="cls-9" d="M183.16,195.21c.15.22.24.37.31.48-.06.49-.07.5-1.41,1.22-.06,0-.13,0-.16-.07a2.47,2.47,0,0,1-.21-.36A2,2,0,0,1,183.16,195.21Z"/><path class="cls-9" d="M175.26,198.35c-.11-.21-.2-.36-.28-.5.78-1,1-1.08,1.88-.69A1.85,1.85,0,0,1,175.26,198.35Z"/><path class="cls-9" d="M153.19,214.19c-.22-.16-.35-.21-.4-.3a4.75,4.75,0,0,1-.16-.57l1.21-.65.53.28C154.37,213.73,153.77,213.9,153.19,214.19Z"/><path class="cls-9" d="M205.82,211.25l.58.5-1.47,1.31-.47-.64C204.63,211.72,205.06,211.51,205.82,211.25Z"/><path class="cls-9" d="M217.13,221.23l-1.57,1c-.52-.12-.52-.4-.31-.67a3.63,3.63,0,0,1,1.48-1.08Z"/><path class="cls-9" d="M162.07,206.85c.05.37.09.59.13.89l-1,.87c-.51-.08-.55-.37-.55-.73C160.85,207.36,161.33,207.13,162.07,206.85Z"/><path class="cls-9" d="M150.47,215.9c-.16-.21-.28-.39-.45-.63.48-.45.91-.83,1.53-.72.29.2.31.41.15.64A2,2,0,0,1,150.47,215.9Z"/><path class="cls-9" d="M177.66,195.85l1.15-.79.57.24c0,.69-.61.85-.86,1.21C178.06,196.58,177.84,196.42,177.66,195.85Z"/><path class="cls-9" d="M182.51,193.6l-.45-.63c.19-.69.7-.87,1.24-1.08l.39.37C183.59,192.89,183,193.08,182.51,193.6Z"/><path class="cls-9" d="M180.23,197.29l.34.59a1.82,1.82,0,0,1-1.35.91c-.09-.2-.17-.35-.23-.48C179.14,197.74,179.6,197.58,180.23,197.29Z"/><path class="cls-9" d="M183.59,227.51c.09.13.17.28.31.5l-1,.68-.43-.35C182.43,227.77,182.67,227.6,183.59,227.51Z"/><path class="cls-9" d="M184.49,195c-.08-.21-.14-.36-.23-.57l.9-.89.52.41A1.58,1.58,0,0,1,184.49,195Z"/><path class="cls-9" d="M181.6,194.12l-1,.66-.43-.27a.72.72,0,0,1,.43-.77C181,193.57,181.32,193.44,181.6,194.12Z"/><path class="cls-7" d="M217,187a5,5,0,0,1,.21-1h0l.8-4.82c.18-1.34.36-2.62.55-3.89.32-2.23.67-4.47,1-6.7s.67-4.22,1-6.34c.09-.6.47-1.92.11-2.47-.23-.35-1-.26-1.34-.24a1.54,1.54,0,0,0-1.25.53,5,5,0,0,0-.42,1.93c-.16.94-.26,1.88-.42,2.82-.26,1.62-.57,3.24-.85,4.87s-.57,3.37-.85,5.06a48.09,48.09,0,0,1-.92,5l-1.13-.25a7.13,7.13,0,0,1,.68,4.67,8.87,8.87,0,0,1-.72,3.2,1.53,1.53,0,0,0-.1.54c-.36,2.91-.94,5.78-1.47,8.67a22.79,22.79,0,0,0-.43,2.71c-.16,2.69-.25,5.37-.36,8.06,0,.23-.16.92.19,1s.42-.35.48-.53c.31-.86.56-1.74.88-2.6a3.23,3.23,0,0,1,.48-.7c.85.26,1.6.51,2.37.7.48.12.76-.27.45-.62s-.65-.29-.93-.42l-1.68-.78c.09-.33.16-.62.25-.9a21.54,21.54,0,0,0,.77-2.44c.44-2.22.8-4.45,1.19-6.68.31-1.74.61-3.48.91-5.18h0l.26-1.46A9.68,9.68,0,0,1,217,187Zm-4.5,18c-.12.1-.63.29-.63,0,0-.59-.42-3.34.76-3,.22.07.61.29.68.53A3.48,3.48,0,0,1,212.49,205.05Z"/><path class="cls-7" d="M41.52,98.12c.15,1.28.33,2.55.49,3.82s.34,2.53.49,3.81c.18,1.51.32,3,.51,4.55l.32,2.35.61,4.43c.78-1.17,1.56-2.33,2.32-3.5q1.41-2.14,2.93-4.2A123.88,123.88,0,0,1,60.51,95.76c2.11-2.14,4.24-4.24,6.51-6.21a97.88,97.88,0,0,1,19-13.28c2.44-1.26,4.85-2.57,7.26-3.88s4.77-2.63,7.22-3.83c1.4-.68,2.85-1.26,4.29-1.86.32-.13.88-.29,1.47-.5a41.55,41.55,0,0,1,4.27-1s-.94-9.07,2.75-13.88a10.56,10.56,0,0,0-2.49-1.44l0,0-.19-.07a15.49,15.49,0,0,0-1.69-.6l-.15-.05h0a25.72,25.72,0,0,0-14.84.68c-1.85.6-3.72,1.18-5.53,1.92-2.87,1.18-5.59,2.7-8.44,4-1.46.63-2.89,1.31-4.36,1.92a61.09,61.09,0,0,0-5.72,2.87c-1.55.84-3,1.84-4.61,2.63-1.2.59-2.34,1.3-3.48,2q-2.61,1.58-5.17,3.21c-2,1.25-3.9,2.55-5.74,4-5.2,4-10.66,9.29-10.43,16.39.05,1.64.39,3.27.58,4.91S41.35,96.61,41.52,98.12Z"/><path class="cls-8" d="M44.82,83.75v0c0-.94,2.4.13,2.8.35,3.77,2,7.09,7.84,6.92,12.11,0,1.14-.32,1.2-.71.11-.92-2.52-1.51-5.16-2.82-7.52a9,9,0,0,0-2.63-3C47.68,85.27,44.9,84.78,44.82,83.75Z"/><path class="cls-4" d="M140.67,57.28a1.08,1.08,0,0,0-.74.43c-.67.75-1.37,1.47-2.08,2.17a13.34,13.34,0,0,1-12.8,3.39c-.76-.22-1.45-.61-2.21-.81-1-.25-1.3.07-1.86.86a8,8,0,0,1-2.53,2.52c-1.72.92-1.87-1-2.54-2.13a4.42,4.42,0,0,0-2.32-1.94,5.1,5.1,0,0,0-1.6-.25c-.38,0-1.14.21-1.45-.06a1.2,1.2,0,0,1-.32-1.09c0-5,2.71-9.9,6.39-13.17A22.15,22.15,0,0,1,120,44.76a19.64,19.64,0,0,1,14.15-2.52,15.68,15.68,0,0,1,3.73,1.39,13.33,13.33,0,0,1,3.33,2.45,17.14,17.14,0,0,1,3.59,5.56c.77,2,1.79,4.93,1.2,7-.46,1.67-2.24,1.25-3.33.35C142,58.48,141.4,57.24,140.67,57.28Z"/><path class="cls-4" d="M120.65,76.88c-.16-1.1,1.4.62,1.58.81,2.44,2.53,5.9,2.43,8.75.6a11.78,11.78,0,0,0,2.14-1.72c.5-.53.91-1.14,1.37-1.72.19-.23.71-1,1.08-.66s-.61,1.68-.77,1.88a15.29,15.29,0,0,1-2.14,2,10,10,0,0,1-5.42,2.34,6.81,6.81,0,0,1-3.18-.53,8.47,8.47,0,0,1-2.92-2.14,1.76,1.76,0,0,1-.48-.86Z"/><path class="cls-4" d="M133.16,71.71a1.26,1.26,0,0,1-.73-.08,4.76,4.76,0,0,1-1-.46c-.33-.2-.76-.68-.35-1s.94.19,1.31.09.56-1.31.58-1.72-.2-.93-.16-1.4.5-1,1-.55.2,1,.19,1.38c0,1,.1,2.6-.51,3.52A.58.58,0,0,1,133.16,71.71Z"/><path class="cls-4" d="M127.74,68.34c1,.13,1.19,1.27.68,2s-2.3,1-2.58-.25a1.4,1.4,0,0,1,.72-1.47A1.62,1.62,0,0,1,127.74,68.34Z"/><path class="cls-4" d="M136.68,67.51a1.67,1.67,0,0,1,0-.39,1.51,1.51,0,0,1,2.41-.91C140.45,67.43,137.08,69.78,136.68,67.51Z"/><path class="cls-4" d="M124.46,68.49a.32.32,0,0,1-.19,0c-.38-.21-.1-.75.11-1a5.29,5.29,0,0,1,2.16-1.33,2.52,2.52,0,0,1,1.73-.08,1.92,1.92,0,0,1,.86.65c.25.43,0,.63-.47.44s-.55-.36-.91-.36A4.49,4.49,0,0,0,125.21,68C125,68.18,124.74,68.48,124.46,68.49Z"/><path class="cls-4" d="M138.72,64.47a5.44,5.44,0,0,0-1.92,1c-.18.11-.46.34-.68.21s-.06-.57.13-.75a5.45,5.45,0,0,1,2.26-1.27,2,2,0,0,1,1.24,0c.24.09,1,.64.78,1s-1.05-.11-1.35-.17A1.43,1.43,0,0,0,138.72,64.47Z"/><path class="cls-4" d="M145.1,61.17c-.25-.39-.64,0-.8.28-.29.47-.41,1-.65,1.49-.39.77-.8,1.53-1.25,2.26a20.58,20.58,0,0,1-3.22,4A16,16,0,0,1,137,71a21.25,21.25,0,0,1-4.24,2.18,21.94,21.94,0,0,1-3.08,1,16,16,0,0,1-3.52.4,18.23,18.23,0,0,1-7.12-1.57,12.92,12.92,0,0,1-6.58-5.65c-.13-.25-1-2.05-1.36-1.24-.24.55.62,1.81.87,2.26,2.35,4.27,7.62,6.5,12.27,6.85a20.06,20.06,0,0,0,4.17-.1,22.63,22.63,0,0,0,2.58-.51,21.59,21.59,0,0,0,8.32-4.32,19.88,19.88,0,0,0,5.58-8.14C145,61.83,145.25,61.41,145.1,61.17Z"/><path class="cls-4" d="M221.2,159.57l-.43-.19c-1.35-.57.15-6.52.32-7.56.68-4.42.35-9.11.26-13.58-.06-3.06-.4-6.12-.42-9.19a26.12,26.12,0,0,0-.48-3.6c-.2-1.26-.39-2.53-.65-3.79-.4-1.85-1-3.66-1.26-5.53-.33-2.12-1.21-4.08-1.6-6.18a21.86,21.86,0,0,0-.91-2.77c-.77-2.37-1.79-4.64-2.79-6.93-.49-1.11-.92-2.24-1.52-3.31-1.39-2.51-2.74-5-4.14-7.54a58.29,58.29,0,0,0-12.72-15.5,76.58,76.58,0,0,0-14.33-9.25,68.34,68.34,0,0,0-8.93-4.27A68.56,68.56,0,0,0,162,58c-1.88-.36-3.78-.69-5.68-.95-1.67-.24-3.34-.41-5-.5-1-.05-3.15.34-3.76-.66a.9.9,0,0,1,.66-.24,28.2,28.2,0,0,1,4.21.2c1.39.22,2.8.28,4.2.43,1,.1,1.94.19,2.9.38,2.39.46,4.79.95,7.17,1.47a58.23,58.23,0,0,1,18.14,7.68c2.38,1.5,4.78,3,7.07,4.59a55.89,55.89,0,0,1,6.69,5.71c.65.64,1.23,1.36,1.82,2.06a78.17,78.17,0,0,1,8.95,12.52,93.43,93.43,0,0,1,4.72,8.9,102.86,102.86,0,0,1,3.65,10.09c1.23,4,2.05,8.15,3,12.27a76.77,76.77,0,0,1,1.19,9.69c.28,3.06.58,6.13.57,9.2,0,2.7-.19,5.39-.26,8.09a61,61,0,0,1-.35,7.65,20.3,20.3,0,0,0-.14,2.2A.76.76,0,0,1,221.2,159.57Z"/><path class="cls-4" d="M83.06,144.24c.23,0,.4.17.34.71a7.69,7.69,0,0,1-.42,1.78,43,43,0,0,0-1.35,5.13c-.09.35-.21.7-.31,1-.32,1.12-.69,2.21-.92,3.35-.26,1.32-.77,2.58-1.15,3.87-.77,2.58-1.55,5.15-2.25,7.74-.4,1.48-.91,2.92-1.43,4.36-.37,1-.64,2.1-1,3.14s-.68,2-1,3c-.95,3.28-1.86,6.57-2.81,9.85-.22.76-.54,1.49-.81,2.24-.08.23-.11.47-.16.67a1.32,1.32,0,0,0,1.35.44c2.68-.23,5.38-.09,8-.45a24.36,24.36,0,0,1,3.31-.1c1.71,0,3.41-.19,5.11-.2,5.55-.06,11.15,0,16.7.21,1.95.07,3.89,0,5.84.07,1.32,0,2.64.08,4,.1.74,0,2.55-.29,3.13.27s-.17.72-.67.72c-2,0-3.92,0-5.88,0-8.15-.09-16.28-.32-24.43-.29l-7,0c-.73,0-1.45.19-2.18.23-1.17.07-2.33.09-3.5.11a16.45,16.45,0,0,0-3.83.28,2.77,2.77,0,0,1-.81,0,.76.76,0,0,1-.28-.89c.28-.94.6-1.87.87-2.81,1-3.57,2.07-7.16,3.14-10.73.8-2.63,1.62-5.25,2.48-7.86,1-2.9,1.83-5.83,2.69-8.76.49-1.7,1-3.41,1.5-5.1.92-3,1.66-6.13,2.46-9.2a21,21,0,0,1,.5-2.22A1,1,0,0,1,83.06,144.24Z"/><path class="cls-4" d="M193.61,116.63c.19,0,.42.18.52.69a38.73,38.73,0,0,1,.39,4.32,7.73,7.73,0,0,0,.14,1.09c.3,1.38.41,2.79.68,4.16,1.12,5.9,2,11.88,4.18,17.53,1,2.61,2.14,5.18,3.27,7.73.77,1.76,1.71,3.41,2.64,5.08s1.91,3.29,2.75,5a28.69,28.69,0,0,0,3.38,5,23,23,0,0,1,1.54,1.86,2.24,2.24,0,0,1,.46,1.06c0,.24-.15,1-.55.53a35.55,35.55,0,0,1-5.5-7.51c-1.26-2.44-2.62-4.83-4-7.22-2.45-4.34-4-9.31-5.6-14-.55-1.64-1.18-3.27-1.61-4.94s-.78-3.2-1.07-4.82c-.52-2.94-.86-5.91-1.4-8.85-.34-1.92-.43-3.88-.6-5.83C193.21,117,193.39,116.66,193.61,116.63Z"/><path class="cls-4" d="M119,191.39a.3.3,0,0,1-.32-.08c-.31-.35.81-1.57,1.09-1.78a59.8,59.8,0,0,1,10.9-6.71,24.49,24.49,0,0,1,14.86-1.41,26.47,26.47,0,0,1,4.3,1.15,5.38,5.38,0,0,1,1.63.8c1,.91-.66.52-1.05.39-.79-.27-1.58-.52-2.38-.75a33.13,33.13,0,0,0-8.34-1.19c-5.86-.16-10.91,2.49-15.68,5.64a29.52,29.52,0,0,0-2.72,2C121.07,189.64,119.73,191.22,119,191.39Z"/><path class="cls-4" d="M137.76,190.65c-.39.36-.78.66-1.1,1a19.15,19.15,0,0,1-10.1,5.87,12.27,12.27,0,0,1-6,0c-.49-.15-.2-.66.21-.67s.85,0,1.28.07a18.15,18.15,0,0,0,11.61-3.57,15.29,15.29,0,0,0,2.59-2.43,2.32,2.32,0,0,1,2.06-1.13c1.12-.06,2.24,0,3.35-.17,1.46-.18,2.88-.52,4.33-.71a15.89,15.89,0,0,0,2.15-.48,13.75,13.75,0,0,1,1.67-.46c.36-.05.52.18.37.43s-1.17.58-1.55.71a31.56,31.56,0,0,1-8.5,1.49Z"/><path class="cls-4" d="M192.89,116c.07.17,0,.33-.42.42-.57.12-1.34-.42-1.82-.66a75.49,75.49,0,0,1-12.5-7.68c-2.24-1.74-4.31-3.77-6.7-5.32a9.76,9.76,0,0,1-1.3-1c-.16-.15-.52-.4-.56-.64s.07-.72.38-.48q6.18,4.79,12.55,9.31a75.56,75.56,0,0,0,8,4.63l1.67.88A1.48,1.48,0,0,1,192.89,116Z"/><path class="cls-4" d="M173.7,107.28l.45.27a2.35,2.35,0,0,1,0,.53c-.47,2.15-1,4.29-1.42,6.44-.62,3-1.19,6.11-1.79,9.17a12.14,12.14,0,0,1-.5,1.76c-.25.66-1.11.91-.91,0,1.24-6,2.14-12,3.87-17.88C173.42,107.43,173.57,107.38,173.7,107.28Z"/><path class="cls-4" d="M76.2,179.89c-.22,0-.43-.13-.45-.58-.07-1.51-.09-3-.1-4.53a.53.53,0,0,1,1-.28c.39.66.16,2.32.18,3.07a5.7,5.7,0,0,1,0,1.7A.91.91,0,0,1,76.2,179.89Z"/><path class="cls-4" d="M144.51,183.6c.24-.26,1,0,1.27,0a20.36,20.36,0,0,1,2.19.35,17.9,17.9,0,0,1,1.73.5c.35.11.7.21,1,.33.63.23.16.93-.4.73a20.92,20.92,0,0,0-5-1.13c-.25,0-.95-.23-.94-.56A.29.29,0,0,1,144.51,183.6Z"/><path class="cls-4" d="M150.09,186.72c-.15.62-2.47-.08-2.85-.06-.59,0-1.19,0-1.78,0-.31,0-.62,0-.92,0s-.65-.21-.57-.49.76-.36,1-.39a8.26,8.26,0,0,1,2.22.07,13,13,0,0,1,1.74.31C149.15,186.18,150.16,186.27,150.09,186.72Z"/><path class="cls-4" d="M119.3,196.26c-.44.29-.58-.62-.6-.93a6.83,6.83,0,0,1,0-1.63c.07-.4.19-1,.59-.46.24.32.1,1.11.11,1.49s.24,1.14,0,1.4A.44.44,0,0,1,119.3,196.26Z"/><path class="cls-4" d="M118.42,198.19c-.44-.54-5.22,3.57-5.72,4-2,1.6-4.21,3-6.33,4.47a139,139,0,0,1-15.47,9.14c-1.14.58-2.28,1.18-3.47,1.66-2.21.89-4.45,1.71-6.69,2.52-1.37.5-2.76,1-4.17,1.4a34.74,34.74,0,0,1-6.63,1.23c-7.16.59-15.24-1.4-21-5.74a58.34,58.34,0,0,1-7.89-6.46A30.87,30.87,0,0,1,35.94,203a50.51,50.51,0,0,1-3.35-7.34c-1.51-4.86-3.15-9.56-3.89-14.61a100.3,100.3,0,0,1-.47-20.93,65.22,65.22,0,0,1,1.17-7.87A81.22,81.22,0,0,1,32,142.11c1.24-3.69,2.51-7.39,4.1-11,.33-.73.66-1.46,1-2.18a6.36,6.36,0,0,0,.77-1.78c0-.13.08-.19,0-.32-.46-1.06-1.42,1.17-1.57,1.49-1.08,2.29-2,4.69-2.93,7.06-.33.88-.66,1.77-1,2.66-.83,2.44-1.48,4.95-2.17,7.42a79.34,79.34,0,0,0-2.57,12.75,87,87,0,0,0-.58,9.27c0,1.71,0,3.42.05,5.13a62.23,62.23,0,0,0,.7,7.7,62.25,62.25,0,0,0,1.9,10c.55,1.77,1.16,3.53,1.69,5.31A51.29,51.29,0,0,0,35,203.42a33.38,33.38,0,0,0,6.22,8.6,44.28,44.28,0,0,0,8.55,6.34,31.65,31.65,0,0,0,9.42,4.11,37.14,37.14,0,0,0,17.66-.21,86.57,86.57,0,0,0,19.84-8.45c2.62-1.45,5.26-2.87,7.72-4.57,1.72-1.18,3.37-2.43,5-3.65.85-.61,1.68-1.23,2.54-1.81S119.09,199,118.42,198.19Z"/><path class="cls-4" d="M217.2,193.58a.86.86,0,0,1,0-.15c.09-.56.84-.68,1.22-.91a12.5,12.5,0,0,0,4.74-5.68,12.78,12.78,0,0,0,1.08-5,11.53,11.53,0,0,0-.76-4.47,22.79,22.79,0,0,0-1.92-3.94c-.14-.21-.9-1.34-.37-1.49s1.41,1.58,1.58,1.88A15.75,15.75,0,0,1,225,181a12.69,12.69,0,0,1-1.25,6.55c-1.26,2.37-2.91,4.77-5.34,6.06C218.18,193.68,217.22,194.14,217.2,193.58Z"/><path class="cls-4" d="M212.31,189.89c-.09,0-.21,0-.33-.2a5.17,5.17,0,0,1-.45-1.23,14.57,14.57,0,0,1-.5-8.55,20.84,20.84,0,0,1,3.07-6.6c.22-.32,1.23-1.37,1.27-.48,0,.58-.62,1.22-.9,1.67a20.15,20.15,0,0,0-2.75,6.55c-.59,2.72.29,5.61.77,8.3C212.54,189.63,212.46,189.86,212.31,189.89Z"/><path class="cls-4" d="M220.83,188c-.14-.29-.77-.15-.94.05-.57.65-1.15,1.31-1.71,2l-.26.29s-.81.86-1.12.92c-.15,0-.13-.37-.13-.42a2.82,2.82,0,0,1,.94-1.71,14.42,14.42,0,0,0,1.58-1.82c.43-.59.78-1.22,1.15-1.85.21-.35.52-1.08-.2-.78a1.58,1.58,0,0,0-.56.5c-.45.53-.79,1.14-1.21,1.7s-.84,1.11-1.27,1.66c0-.05,0-.28,0-.34a7.25,7.25,0,0,1,.05-.93,9.87,9.87,0,0,1,.7-2.88,5.89,5.89,0,0,1,1.44-2c.17-.16.82-.9.55-1.07s-.82.29-1,.42a7.63,7.63,0,0,0-1.92,3.44c-.11.43-.18.87-.25,1.31a14.41,14.41,0,0,0-.21,3,4.74,4.74,0,0,0-.43,2.76s.24.38,2.13-1.25a.81.81,0,0,0,.13-.11,24.15,24.15,0,0,0,1.79-1.86c.16-.18.8-.72.72-1C220.84,188,220.83,188,220.83,188Z"/><path class="cls-4" d="M213.42,181.39a.41.41,0,0,0,0,.22c.06.28.2.53.26.82s.09.47.13.7a15.75,15.75,0,0,1-.43,5.43c0,.11-.33,1,0,.94.12,0,.2-.31.24-.4a5.15,5.15,0,0,0,.33-.93,16.32,16.32,0,0,0,.33-1.83c.11-.78.18-1.56.22-2.35,0-.38,0-.77.05-1.16,0-.66.18-1.52-.71-1.67A.36.36,0,0,0,213.42,181.39Z"/></g></g></svg>